<?xml version="1.0" encoding="UTF-8" standalone="no"?>
<!-- Created with Inkscape (http://www.inkscape.org/) -->

<svg
   version="1.1"
   id="svg1"
   width="985.33319"
   height="1165.3334"
   viewBox="0 0 985.33323 1165.3334"
   xmlns="http://www.w3.org/2000/svg"
   xmlns:svg="http://www.w3.org/2000/svg">
  <defs
     id="defs1" />
  <g
     id="g1"
     transform="translate(-100.66665,-28.666663)">
    <g
       id="g2">
      <path
         style="fill:#f7a521"
         d="m 314.99998,1112.3353 c -15.00801,-0.8332 -8.98747,-3.002 8.33333,-3.002 10.22222,0 16.66667,0.5155 16.66667,1.3333 0,0.7333 -2.95093,1.3333 -6.55762,1.3333 -3.60669,0 -7.35669,0.1796 -8.33333,0.399 -0.97665,0.2195 -5.52572,0.1908 -10.10905,-0.064 z m 526.66663,0.099 c -3.85,-0.3156 -7,-1.1424 -7,-1.8374 0,-0.7636 13.71882,-1.2636 34.66666,-1.2636 22.22223,0 34.66667,0.4786 34.66667,1.3333 0,0.7333 -1.35,1.346 -3,1.3615 -1.65,0.015 -14.1,0.2424 -27.66667,0.5041 -13.56666,0.2617 -27.81666,0.2176 -31.66666,-0.098 z m 71.46962,-0.5663 c -0.71978,-0.4393 -2.76989,-0.5193 -4.55582,-0.1779 -1.78593,0.3414 -3.24714,-0.011 -3.24714,-0.7832 0,-0.9397 10.36017,-1.4437 31.33333,-1.5244 20.62262,-0.079 31.33333,0.3474 31.33333,1.2484 0,0.753 -1.35,1.4995 -2.99999,1.6589 -6.90718,0.6675 -50.66191,0.3116 -51.86371,-0.4218 z m -571.80292,-1.2014 c 0,-0.8554 12.66667,-1.3333 35.33333,-1.3333 22.66667,0 35.33333,0.4779 35.33333,1.3333 0,0.8553 -12.66666,1.3333 -35.33333,1.3333 -22.66666,0 -35.33333,-0.478 -35.33333,-1.3333 z m 72,0 c 0,-0.8116 6,-1.3333 15.33333,-1.3333 9.33333,0 15.33333,0.5217 15.33333,1.3333 0,0.8116 -6,1.3333 -15.33333,1.3333 -9.33333,0 -15.33333,-0.5217 -15.33333,-1.3333 z m 396.66664,0 c -0.5262,-0.8514 3.54171,-1.3333 11.25464,-1.3333 7.16357,0 12.07869,0.5425 12.07869,1.3333 0,0.7836 -4.64044,1.3333 -11.25465,1.3333 -6.19005,0 -11.62546,-0.6 -12.07868,-1.3333 z m 159.33332,0 c 0,-0.8494 10.88889,-1.3333 30,-1.3333 19.11113,0 30.00003,0.4839 30.00003,1.3333 0,0.8494 -10.8889,1.3333 -30.00003,1.3333 -19.11111,0 -30,-0.4839 -30,-1.3333 z m -665.33329,-53.412 c 0,-33.4907 0.45336,-50.4652 1.33333,-49.9213 0.85048,0.5256 1.33334,18.9027 1.33334,50.7453 0,32.392 -0.46819,49.9213 -1.33334,49.9213 -0.86553,0 -1.33333,-17.804 -1.33333,-50.7453 z m 141.56078,-0.032 c 0.17352,-39.0762 0.43403,-46.3217 1.09862,-30.5556 0.92703,21.9921 0.45456,79.9971 -0.6607,81.1124 -0.36596,0.3659 -0.56302,-22.3846 -0.43792,-50.5568 z m 347.65844,39.7777 c -22.69412,-19.5404 -32.2297,-27.8795 -61.36658,-53.6666 -15.74325,-13.9334 -31.25421,-27.5797 -34.4688,-30.3252 -3.21459,-2.7455 -5.47189,-5.3646 -5.01622,-5.8203 0.93539,-0.9354 3.27019,0.9489 26.4495,21.3456 9.0839,7.9934 23.08453,20.2934 31.11252,27.3333 34.98273,30.6772 58.22753,52.1332 56.47965,52.1332 -0.2281,0 -6.16363,-4.95 -13.19007,-11 z m 217.4472,-5.3294 c -31.18899,-27.9105 -41.68108,-37.9621 -41.16605,-39.438 0.41706,-1.1951 26.67486,22.2201 53.80085,47.9764 13.8039,13.1069 4.6104,6.8941 -12.6348,-8.5384 z M 310.66665,1056.047 v -49.2867 l 13.66666,-0.4321 13.66667,-0.4321 -13.66667,-0.2812 -13.66666,-0.2812 V 904.09267 802.85208 l 3,-0.57782 3,-0.57783 -3,-0.18157 c -2.99991,-0.18157 -3,-0.18241 -3,-25.61169 v -25.4301 l 3.06215,2.43011 c 1.68418,1.33655 8.27645,6.87955 14.64947,12.31776 l 11.58732,9.88766 0.0134,165.11233 0.0134,165.11237 h -14.66284 -14.66284 z m 30.684,-102.04666 -0.0179,-151.33333 h 14.79916 14.79916 l 20.53448,17.66083 20.53447,17.66082 v 83.64598 83.64596 l -28.33333,0.3879 -28.33333,0.3878 28.33333,0.3053 28.33333,0.3054 v 49.3333 49.3334 h -35.31569 -35.31569 z m 9.31599,51.99996 c 0,-0.3666 -0.3,-0.6666 -0.66666,-0.6666 -0.36667,0 -0.66667,0.3 -0.66667,0.6666 0,0.3667 0.3,0.6667 0.66667,0.6667 0.36666,0 0.66666,-0.3 0.66666,-0.6667 z m 62.98357,50.3334 0.34976,-49 13,-0.3817 13,-0.3816 v 49.3816 49.3817 h -13.34976 -13.34976 z m 378.34974,31.4157 c -10.63334,-9.5997 -31.93333,-28.5326 -47.33333,-42.0732 -15.4,-13.5406 -33.1,-29.2713 -39.33333,-34.9571 -10.52076,-9.5966 -44.10974,-39.08674 -58.52763,-51.38543 -3.43877,-2.93333 -16.96024,-14.93333 -30.0477,-26.66667 -13.08746,-11.73333 -25.96197,-23.09602 -28.61002,-25.25042 -2.64806,-2.15441 -9.91465,-8.48197 -16.14798,-14.06125 -6.23333,-5.57928 -15.83333,-13.97845 -21.33333,-18.66481 -5.5,-4.68637 -16.9,-14.63263 -25.33333,-22.1028 -18.62663,-16.49932 -78.81437,-69.04699 -85.43786,-74.59261 -2.62415,-2.19712 -9.67415,-8.0986 -15.66666,-13.11441 -9.00887,-7.54053 -10.89547,-9.78508 -10.89547,-12.96262 v -3.84298 l 104.99999,0.0153 104.99999,0.0153 28,25.2965 c 31.0444,28.04697 30.60018,27.53215 24.41427,28.2942 -4.31124,0.5311 -4.29381,0.54878 0.74698,0.75718 4.34062,0.17945 6.4606,1.45484 13.33333,8.02136 8.8803,8.48463 23.19128,21.31273 51.53167,46.19202 10.02421,8.8 33.39272,29.5 51.93002,46 18.53729,16.49999 35.13057,31.10004 36.87395,32.44454 3.02338,2.33164 3.16977,3.17832 3.16977,18.33333 0,8.73883 -0.34996,15.88879 -0.77768,15.88879 -0.42773,0 -12.91186,-10.95 -27.74251,-24.33333 -55.37045,-49.9672 -124.60879,-110.87089 -110.81314,-97.47421 3.66667,3.56062 21.06667,19.17495 38.66667,34.69851 29.84617,26.32492 51.86161,45.94601 85.99999,76.64681 l 14,12.59027 0.37269,16.87115 0.37268,16.87118 -8.37268,0.4744 -8.37269,0.4744 8.33333,0.2569 8.33334,0.2569 v 15.4454 15.4453 l -5,-4.0279 c -2.75,-2.2153 -10.7,-9.4557 -17.66667,-16.0896 l -12.66666,-12.0618 -40.66667,0.273 -40.66666,0.273 40.75728,0.7046 40.75727,0.7047 14.83498,13.8223 c 8.15923,7.6023 16.06845,14.6863 17.57605,15.7423 2.64131,1.85 2.74108,3.1304 2.74108,35.1776 v 33.2578 l -11,-0.065 -11,-0.065 z m 1.33333,-85.6414 c 0,-0.55 -25.61214,-24.02917 -61.93206,-56.77433 -26.61786,-23.99801 -33.99083,-30.40057 -29.04822,-25.22494 7.96896,8.34466 90.98028,83.16167 90.98028,81.99927 z m -97.32832,-88.10163 c -0.91017,-1.09668 -9.83363,-9.29677 -19.82992,-18.22243 -9.9963,-8.92565 -16.37508,-14.35963 -14.17508,-12.0755 4.81987,5.00418 34.46009,32.18769 35.16325,32.24876 0.27313,0.0237 -0.24808,-0.85415 -1.15825,-1.95083 z m -38.67167,-34.52604 c 0,-0.286 -6.15,-6.05423 -13.66667,-12.81827 l -13.66666,-12.29827 13.33333,12.77635 c 13.19613,12.64489 14,13.35345 14,12.34019 z m -28,-25.20939 c 0,-0.21784 -2.55,-2.76784 -5.66667,-5.66667 l -5.66666,-5.27059 5.2706,5.66666 c 4.9016,5.26995 6.06273,6.27937 6.06273,5.2706 z m -13.35282,-12.29408 c -0.92364,-1.11292 -6.54711,-6.27957 -12.49659,-11.48146 l -10.81725,-9.45796 12,11.4411 c 11.52246,10.9858 14.9054,13.82588 11.31384,9.49832 z m 70.68615,-1.07743 c 0,-0.23884 -1.65,-1.88884 -3.66667,-3.66667 l -3.66666,-3.23242 3.23242,3.66667 c 3.02118,3.42705 4.10091,4.27812 4.10091,3.23242 z m -8,-6.63753 c 0,-0.22281 -2.25,-2.47281 -5,-5 l -5,-4.59489 4.59489,5 c 4.27682,4.65389 5.40511,5.61305 5.40511,4.59489 z m -10.66666,-9.36247 c 0,-0.23884 -1.65,-1.88884 -3.66667,-3.66667 l -3.66667,-3.23242 3.23242,3.66667 c 3.02118,3.42705 4.10092,4.27812 4.10092,3.23242 z m -8,-6.66667 c 0,-0.23883 -1.65,-1.88883 -3.66667,-3.66666 l -3.66667,-3.23242 3.23242,3.66667 c 3.02118,3.42705 4.10092,4.27811 4.10092,3.23241 z m -13.33334,-17.28247 c 1.83334,-0.32273 -0.26666,-0.64942 -4.66666,-0.72596 -6.91794,-0.12035 -7.6844,0.1004 -5.66667,1.63208 1.28333,0.97419 2.34668,2.6051 2.36298,3.62426 0.0191,1.19275 0.8505,0.82029 2.33333,-1.04529 1.26703,-1.59406 3.80369,-3.16235 5.63702,-3.48509 z m -135.99999,1.05006 c 0,-0.36667 -0.3,-0.66667 -0.66666,-0.66667 -0.36667,0 -0.66667,0.3 -0.66667,0.66667 0,0.36666 0.3,0.66666 0.66667,0.66666 0.36666,0 0.66666,-0.3 0.66666,-0.66666 z m 2.66667,0 c 0,-0.36667 -0.3,-0.66667 -0.66667,-0.66667 -0.36666,0 -0.66666,0.3 -0.66666,0.66667 0,0.36666 0.3,0.66666 0.66666,0.66666 0.36667,0 0.66667,-0.3 0.66667,-0.66666 z m 105.33333,-1.33334 c 0,-0.36666 -0.3,-0.66666 -0.66667,-0.66666 -0.36667,0 -0.66667,0.3 -0.66667,0.66666 0,0.36667 0.3,0.66667 0.66667,0.66667 0.36667,0 0.66667,-0.3 0.66667,-0.66667 z m 15.29629,-4.42907 c -8.60584,-7.9495 -23.29629,-20.45245 -23.29629,-19.82734 0,0.8619 24.28649,22.25641 25.2649,22.25641 0.36356,0 -0.52231,-1.09308 -1.96861,-2.42907 z m -24.62963,-20.741 c 0,-0.27687 -1.05,-1.32687 -2.33333,-2.33333 -2.11474,-1.6585 -2.1619,-1.61134 -0.50341,0.5034 1.74183,2.221 2.83674,2.92731 2.83674,1.82993 z m 225.33332,297.57516 v -32.2615 l 5,4.5785 c 12.94332,11.8523 16.0989,14.2249 6.05155,4.5499 l -11.14088,-10.7279 0.378,-15.9387 0.378,-15.9387 19.73327,-0.1778 c 10.85331,-0.098 20.10331,-0.5477 20.55556,-1 0.45225,-0.4522 -8.57772,-0.8222 -20.06661,-0.8222 h -20.88889 v -15.33337 c 0,-16.36535 0.40867,-17.2576 5.43425,-11.86457 1.77783,1.90782 8.03242,7.6886 13.89908,12.84617 6.85193,6.02374 5.30219,4.26193 -4.33333,-4.92633 l -15,-14.30372 v -16.04665 -16.04665 l 3.89748,3.17088 c 15.0267,12.22529 64.85016,58.15644 65.19525,60.10204 0.37553,2.1172 -0.73162,2.4301 -9.33333,2.6376 l -9.7594,0.2355 9.33333,0.7645 9.33333,0.7646 0.37998,13.6666 c 0.34424,12.3813 -0.58323,16.3193 -2.94391,12.4996 -0.39671,-0.6419 -6.28212,-6.1163 -13.07868,-12.1654 -12.3068,-10.9533 -12.29852,-10.9417 2.02109,2.8337 l 14.37848,13.8321 -0.0451,32.4819 -0.0451,32.482 -15,-13.6211 -15,-13.621 15.33333,14.782 15.33334,14.782 -35,0.024 -35,0.024 z m 32,-4.4051 c -3.23871,-3.3 -6.18856,-6 -6.55522,-6 -0.36667,0 1.98318,2.7 5.22189,6 3.2387,3.3 6.18855,6 6.55522,6 0.36666,0 -1.98319,-2.7 -5.22189,-6 z m 14.66666,-62.6667 c 0,-0.3666 -0.3,-0.6666 -0.66666,-0.6666 -0.36667,0 -0.66667,0.3 -0.66667,0.6666 0,0.3667 0.3,0.6667 0.66667,0.6667 0.36666,0 0.66666,-0.3 0.66666,-0.6667 z m -12,-2.6666 c 0,-0.3667 -0.3,-0.6667 -0.66666,-0.6667 -0.36667,0 -0.66667,0.3 -0.66667,0.6667 0,0.3666 0.3,0.6666 0.66667,0.6666 0.36666,0 0.66666,-0.3 0.66666,-0.6666 z m 36,69.2222 c 0,-19.7062 0.49599,-32.6006 1.24373,-32.3333 0.68404,0.2444 7.43404,6.0441 14.99999,12.8883 l 13.75628,12.4438 -15.00053,-14.4438 -15.00053,-14.4439 5.3e-4,-15 c 7.3e-4,-20.6214 -3.89711,-22.2323 39.05577,16.1411 l 23.66407,21.1411 -0.15441,23.1922 -0.15441,23.1923 h -31.20524 -31.20525 z m 55.98367,16.0914 c -0.92189,-1.1108 -7.14536,-6.8858 -13.82992,-12.8333 L 935.33327,1065 l 13.33333,12.7799 c 12.73748,12.2087 16.3128,15.28 12.65034,10.867 z m 8.01633,13.353 c 0,-1.8333 0.67346,-3.3333 1.49659,-3.3333 1.08693,0 1.07572,-0.5071 -0.0409,-1.8526 -1.03106,-1.2424 -1.41424,-7.4773 -1.16326,-18.9282 l 0.37427,-17.0756 23.33334,20.9844 c 12.83329,11.5413 23.53329,21.559 23.77769,22.2615 0.2726,0.7833 -8.8789,1.2772 -23.66658,1.2772 h -24.11111 z m -33.33333,-77.4392 c -16.5,-14.9972 -30.24554,-27.99513 -30.54564,-28.88442 -0.82777,-2.45287 3.32138,0.8319 18.75483,14.84772 7.58494,6.8882 20.5359,18.5882 28.77991,26 13.76756,12.3777 16.72194,15.6229 14.01089,15.39 -0.55,-0.047 -14.49999,-12.3562 -30.99999,-27.3533 z M 303.99998,903.99994 c 0,-66.66666 0.45614,-101.33333 1.33333,-101.33333 0.8772,0 1.33334,34.66667 1.33334,101.33333 0,66.66666 -0.45614,101.33336 -1.33334,101.33336 -0.87719,0 -1.33333,-34.6667 -1.33333,-101.33336 z m 109.33333,18.71331 c 0,-45.49232 0.34325,-82.71331 0.76279,-82.71331 0.41953,0 6.72086,5.19803 14.00294,11.55117 l 13.24016,11.55116 -0.33628,70.78217 -0.33628,70.78216 -13.66667,0.38 -13.66666,0.38 z m 31.99999,11.95335 c 0,-39.1111 0.33434,-70.77676 0.74298,-70.36813 0.94323,0.94324 0.90137,139.83493 -0.0424,140.77873 -0.3853,0.3853 -0.70055,-31.29949 -0.70055,-70.4106 z m 225.33332,54.52344 c -9.9,-8.82771 -27.03236,-23.95682 -38.07192,-33.62025 C 562.0785,893.84381 503.07722,842.24251 484.66663,826.19497 472.9333,815.96764 461.2333,805.57382 458.66664,803.09758 c -2.56667,-2.47623 -10.65786,-9.37353 -17.98043,-15.32731 -21.09325,-17.15037 -27.3529,-22.8152 -27.3529,-24.75371 0,-1.6997 7.74832,4.48936 27.99999,22.36528 4.76667,4.20749 13.46103,11.7678 19.32081,16.80071 5.85978,5.0329 20.28184,17.55073 32.04903,27.81739 11.76718,10.26667 32.09538,27.96667 45.17378,39.33333 45.55383,39.59163 69.56512,60.58603 86.12304,75.30211 9.16666,8.14701 27.76666,24.62501 41.33333,36.61778 13.56666,11.99277 25.23666,22.31694 25.93333,22.94254 0.76425,0.6864 0.49982,1.1192 -0.66667,1.0911 -1.06333,-0.025 -10.03333,-7.26905 -19.93333,-16.09676 z m 235.1111,15.25436 c 0.48889,-0.4889 1.28889,-0.4889 1.77777,0 0.48889,0.4889 0.0889,0.8889 -0.88888,0.8889 -0.97778,0 -1.37778,-0.4 -0.88889,-0.8889 z m -5.09788,-11.08972 c -0.77544,-1.25469 -37.93752,-34.86054 -56.49872,-51.09206 -8.74611,-7.64836 -10.91037,-10.26268 -8.49592,-10.26268 2.00169,0 68.31474,59.68324 68.31474,61.48481 0,1.59406 -2.31047,1.50355 -3.3201,-0.13007 z m -98.01323,-88.21899 c -16.5,-14.69123 -32.1,-28.61851 -34.66666,-30.94952 -2.56667,-2.33102 -17.86667,-15.86624 -34,-30.07827 -41.69713,-36.73146 -42.58389,-37.58461 -40.46286,-38.92879 0.98791,-0.62608 28.49619,-1.02448 61.12953,-0.88533 49.71277,0.21197 54.3609,0.37733 28.66666,1.01983 -16.86666,0.42177 -43.11686,0.74873 -58.33376,0.72659 -15.21691,-0.0221 -27.66691,0.36328 -27.66667,0.8565 2.4e-4,0.49321 5.21215,5.59321 11.58203,11.33333 6.36987,5.74012 14.91987,13.46145 19,17.1585 4.08012,3.69706 13.4184,11.90868 20.75174,18.24806 17.71829,15.31675 39.98588,35.07691 64.17892,56.95208 10.90159,9.85713 20.03357,18.06963 20.29329,18.25 0.25973,0.18036 0.25973,0.93102 0,1.66813 -0.25972,0.73711 -13.97222,-10.67989 -30.47222,-25.37111 z M 429.4805,847.36484 c -12.23623,-10.73227 -17.92941,-16.35141 -14.81386,-14.6212 3.60045,1.9995 26.66666,22.28468 26.66666,23.45154 0,1.61961 0.40863,1.92404 -11.8528,-8.83034 z m -29.48053,-25.22643 c -6.23333,-5.3891 -13.73333,-12.02067 -16.66666,-14.7368 l -5.33334,-4.93843 6,4.13383 c 5.84136,4.02453 29.33132,25.26059 28,25.31336 -0.36666,0.0145 -5.76666,-4.38285 -12,-9.77196 z m 424.11109,-19.94694 c 0.30555,-0.26133 2.65555,-0.8605 5.22222,-1.33147 3.28323,-0.60247 4.07376,-0.46767 2.66666,0.45473 -1.80751,1.18487 -9.21123,2.00769 -7.88888,0.87674 z M 303.99998,774.66661 c 0,-16.88888 0.48889,-26.66666 1.33333,-26.66666 0.84445,0 1.33334,9.77778 1.33334,26.66666 0,16.88889 -0.48889,26.66667 -1.33334,26.66667 -0.84444,0 -1.33333,-9.77778 -1.33333,-26.66667 z m 37.33333,14.66667 c 0,-6.6 0.34138,-12 0.75861,-12 0.59473,0 12.63812,10.38632 26.50806,22.86077 0.70939,0.63802 -5.01002,1.13923 -13,1.13923 h -14.26667 z m 17.84108,-2.69472 c -9.44593,-8.08209 -17.41207,-15.43209 -17.70255,-16.33333 -0.62005,-1.92382 -0.58853,-1.89853 20.1948,16.20454 14.18708,12.35748 16.71148,14.82351 15.17442,14.82351 -0.27074,0 -8.22074,-6.61262 -17.66667,-14.69472 z m 308.1589,-0.0549 c -8.06667,-7.39538 -20.79723,-18.89084 -28.29013,-25.54548 -7.49291,-6.65463 -13.3075,-12.61058 -12.92131,-13.23544 0.38618,-0.62486 -0.17247,-1.13611 -1.24146,-1.13611 -1.06899,0 -6.35558,-4.05 -11.74799,-9 -23.50815,-21.5795 -51.91657,-46.75701 -61.2111,-54.24952 -6.63912,-5.35193 7.68197,7.85298 28.07866,25.89022 11.36667,10.05179 25.16667,22.54268 30.66667,27.75754 l 9.99999,9.48156 -86.99999,0.0272 -86.99999,0.0272 -0.17553,-4.96709 -0.17552,-4.96708 -0.82447,4.66666 -0.82448,4.66667 H 429.3333 413.99997 v -35.33333 -35.33333 l 15.59191,-0.375 15.59191,-0.375 0.50109,6.375 0.50109,6.375 0.24034,-6.33334 c 0.35625,-9.38819 4.29727,-8.82307 17.37425,2.49141 l 10.19941,8.82473 -9.33333,-8.78892 -9.33334,-8.78892 42.73333,-0.0358 c 32.38143,-0.0271 43.16831,0.36792 44.52894,1.63085 1.43648,1.33333 1.60741,1.33333 0.85464,0 -0.74989,-1.32824 24.78515,-1.66667 125.75437,-1.66667 126.60637,0 126.70075,-0.002 134.41202,-2.88371 9.1494,-3.41911 20.17877,-13.28282 25.8481,-23.11629 l 3.84355,-6.66666 0.0125,52.32505 0.0125,52.32505 -102.33333,0.35001 -102.33333,0.35001 102.33333,0.32494 L 833.33325,748 v 23.89202 23.89202 l -6.33334,1.64489 c -4.49981,1.16869 -26.40552,1.78327 -75.66666,2.1229 l -69.33333,0.478 z M 571.99996,743.5657 c 0,-0.23883 -1.65,-1.88883 -3.66666,-3.66666 l -3.66667,-3.23242 3.23242,3.66666 c 3.02118,3.42706 4.10091,4.27812 4.10091,3.23242 z m -8,-6.64963 c 0,-0.22946 -1.95,-2.17946 -4.33333,-4.33333 l -4.33333,-3.91612 3.91612,4.33333 c 3.65037,4.03927 4.75054,4.9462 4.75054,3.91612 z M 490.66663,706.2066 c 0,-0.25301 -1.35,-1.60301 -3,-3 l -3,-2.53998 2.53999,3 c 2.38695,2.81926 3.46001,3.60699 3.46001,2.53998 z m -8,-6.62386 c 0,-0.22947 -1.95,-2.17947 -4.33333,-4.33333 l -4.33333,-3.91612 3.91612,4.33333 c 3.65037,4.03927 4.75054,4.9462 4.75054,3.91612 z m 362.66665,97.23845 c 18.9445,-5.75132 34.99542,-13.68451 51.26661,-25.33862 3.62998,-2.59993 6.89378,-4.43334 7.25289,-4.07422 0.35912,0.35911 -0.51086,1.4764 -1.93328,2.48286 -1.42243,1.00646 -4.87153,3.65515 -7.66468,5.88598 -11.56458,9.23639 -46.02302,24.32463 -55.15663,24.15131 -2.44539,-0.0464 -0.26013,-1.13545 6.23509,-3.10731 z m -10.66667,-25.48791 v -23.33333 h 34.73972 34.73972 l -0.40639,6.33333 c -0.39282,6.12194 -0.71155,6.56217 -9.54886,13.18932 -11.43503,8.57519 -31.68012,19.22266 -45.09261,23.71551 -15.68483,5.25403 -14.43158,6.98258 -14.43158,-19.90483 z m -500.75592,-6.34627 c -8.99159,-7.16392 -25.84544,-22.83011 -25.2266,-23.44895 0.58905,-0.58905 4.26031,2.54741 21.89912,18.7091 10.69761,9.80175 11.9882,11.64015 3.32748,4.73985 z m 571.42258,0.84774 c 0,-1.636 17.07157,-18.54101 17.89358,-17.719 0.34824,0.34824 -2.20677,3.61465 -5.67781,7.25868 -8.09861,8.50225 -12.21577,12.02776 -12.21577,10.46032 z M 402.11745,755.27317 c -4.33538,-4.00027 -7.20786,-7.27322 -6.38328,-7.27322 1.94564,0 15.21666,10.82577 15.93634,13 1.04823,3.16675 -1.69994,1.51931 -9.55306,-5.72678 z m 503.21582,-2.60655 c 0,-4.49162 0.18486,-4.66667 4.92822,-4.66667 h 4.92823 l -4.52311,4.66667 c -2.48772,2.56666 -4.70542,4.66666 -4.92823,4.66666 -0.22281,0 -0.40511,-2.1 -0.40511,-4.66666 z m -497.51892,-1.95564 -3.14771,-2.62231 3.66667,-0.0444 c 2.79256,-0.0338 3.66666,0.59135 3.66666,2.62231 0,3.29937 -0.27493,3.30229 -4.18562,0.0444 z m -30.48104,-17.44096 c -8.43333,-7.32521 -26.13333,-22.37078 -39.33333,-33.43462 -13.2,-11.06384 -24.87958,-21.40293 -25.95462,-22.97576 -1.87715,-2.74633 -1.85072,-2.7757 0.66666,-0.74102 9.52711,7.7003 21.00838,17.22414 27.28796,22.63564 4.03333,3.47578 17.98333,15.41671 31,26.53541 13.01666,11.11869 23.66666,20.47706 23.66666,20.79638 0,1.7885 -3.49203,-0.79346 -17.33333,-12.81603 z m 9.31365,-0.71663 c -9.15584,-7.76228 -23.09698,-19.52226 -30.98032,-26.13329 l -14.33333,-12.02006 v -9.86671 -9.86671 h 35.33333 35.33333 v 36 36 h -4.35301 c -3.59249,0 -7.26143,-2.46575 -21,-14.11323 z m 448.56816,12.2861 c -0.89279,-2.32655 0.44821,-111.60917 1.5278,-124.5062 l 0.80918,-9.66666 h 33.24992 33.24993 l -0.35934,28.99999 -0.35934,29 -7.33333,0.78267 -7.33333,0.78267 7.66666,0.21733 7.66667,0.21733 v 38 38 H 869.9581 c -27.5979,0 -34.17457,-0.34587 -34.74298,-1.82713 z m 52.78482,-74.83954 c 0,-0.36666 -0.3,-0.66666 -0.66667,-0.66666 -0.36666,0 -0.66666,0.3 -0.66666,0.66666 0,0.36667 0.3,0.66667 0.66666,0.66667 0.36667,0 0.66667,-0.3 0.66667,-0.66667 z m 17.33333,39.35874 v -37.30793 l 3.66667,-0.8087 c 6.26805,-1.38244 6.49895,-1.69476 1.33333,-1.80351 l -5,-0.10526 v -29.33333 -29.33333 h 30 30 v 17.18604 c 0,15.34644 -2.65821,36.89753 -5.02307,40.72396 -0.44282,0.71649 -0.99822,3.06657 -1.23423,5.22238 -1.12002,10.23076 -14.58079,38.28618 -25.77391,53.71891 -10.74554,14.81561 -15.77959,19.1487 -22.2464,19.1487 h -5.72239 z m 47.55555,-39.58096 c -0.48888,-0.48889 -1.28888,-0.48889 -1.77777,0 -0.48889,0.48889 -0.0889,0.88889 0.88889,0.88889 0.97777,0 1.37777,-0.4 0.88888,-0.88889 z m -21.87904,67.96098 c 13.61454,-17.0633 25.75094,-39.97213 31.07926,-58.66559 1.95239,-6.84962 4.57756,-12.13242 4.57756,-9.21171 0,2.08363 -4.22787,16.26448 -6.9979,23.47188 -6.50076,16.9145 -28.6254,51.25066 -34.20024,53.07679 -1.02564,0.33597 1.46795,-3.56615 5.54132,-8.67137 z m -601.58076,-54.00614 -9.90428,-8.39928 9.73152,-0.39499 c 11.71058,-0.47531 10.96982,-1.10968 10.47802,8.97301 l -0.40097,8.22053 z m -18.09571,-14.39928 c -0.53039,-0.85819 4.4306,-1.33333 13.92131,-1.33333 8.94135,0 14.74536,0.52482 14.74536,1.33333 0,0.80375 -5.52933,1.33333 -13.92131,1.33333 -7.84262,0 -14.28113,-0.58219 -14.74536,-1.33333 z m 30,0 c 0,-0.85535 12.66667,-1.33333 35.33333,-1.33333 22.66667,0 35.33333,0.47798 35.33333,1.33333 0,0.85534 -12.66666,1.33333 -35.33333,1.33333 -22.66666,0 -35.33333,-0.47799 -35.33333,-1.33333 z m 73.33333,0 c 0,-0.8116 6,-1.33333 15.33333,-1.33333 9.33333,0 15.33333,0.52173 15.33333,1.33333 0,0.81159 -6,1.33333 -15.33333,1.33333 -9.33333,0 -15.33333,-0.52174 -15.33333,-1.33333 z m 35.34148,0.0132 c -0.53783,-0.87024 58.39724,-1.32647 172.63647,-1.33644 190.38924,-0.0166 176.52461,0.58232 188.68541,-8.15091 10.46821,-7.5177 18.00328,-23.29997 18.00328,-37.70806 0,-8.0225 0.90429,-11.48444 2.99984,-11.48444 2.26102,0 0.23629,19.84005 -2.86324,28.05647 -3.84954,10.20462 -13.84232,22.10098 -22.80327,27.1472 l -7.33333,4.12965 -174.25428,0.33392 c -114.03838,0.21852 -174.53646,-0.12269 -175.07088,-0.98739 z m 515.38529,-3.01319 c 0.0331,-0.91667 0.94212,-3.46667 2.0201,-5.66667 1.07799,-2.2 1.65092,-2.90093 1.2732,-1.55761 -0.37773,1.34331 -0.68678,3.89331 -0.68678,5.66666 0,1.77336 -0.6,3.22429 -1.33333,3.22429 -0.73333,0 -1.30627,-0.75 -1.27319,-1.66667 z m 4.27269,-32.01232 c -0.0211,-12.29012 0.49543,-22.67553 1.14777,-23.07869 1.42442,-0.88034 1.35437,27.63904 -0.0936,38.09101 -0.72323,5.22071 -1.02694,0.89587 -1.05421,-15.01232 z m -661.66612,-20.7673 c 0,-1.69952 30.23768,-1.99318 31.28178,-0.3038 0.59961,0.97019 -4.19238,1.41675 -15.20309,1.41675 -8.84328,0 -16.07869,-0.50083 -16.07869,-1.11295 z m 34,-0.22039 c 0.51509,-0.83344 13.79162,-1.33333 35.41202,-1.33333 22.16976,0 34.58797,0.47871 34.58797,1.33333 0,0.85542 -12.69289,1.33334 -35.41202,1.33334 -23.26849,0 -35.12944,-0.45723 -34.58797,-1.33334 z m 72.07053,-0.11413 c 0.8861,-1.43374 28.20206,-0.72438 29.69765,0.77121 0.37194,0.37194 -6.35916,0.67626 -14.95799,0.67626 -10.90516,0 -15.36365,-0.43784 -14.73966,-1.44747 z m -110.07053,-45.2192 v -41.33333 h -49.79335 c -46.54566,0 -49.93727,-0.15903 -51.99999,-2.43832 -1.98898,-2.1978 -2.20665,-8.76935 -2.20665,-66.61975 v -64.18143 l 3,-1.71358 c 2.25698,-1.28917 15.13588,-1.81133 51.99999,-2.10828 l 49,-0.39471 v -41.35065 c 0,-27.89053 0.44471,-41.0758 1.36619,-40.50629 0.88941,0.54969 1.33011,15.46697 1.26282,42.74535 l -0.10337,41.901 h -49.85388 -49.85388 l -2.0756,2.96335 c -2.27313,3.24534 -3.20747,123.85693 -0.98657,127.35369 0.7964,1.2539 13.20332,1.73436 51.64625,2 l 50.59804,0.34962 0.35206,42.33333 c 0.23249,27.95574 -0.10713,42.33333 -1,42.33333 -0.88478,0 -1.35206,-14.28495 -1.35206,-41.33333 z m 7.55555,40.44444 c -0.48888,-0.48889 -0.88888,-19.38888 -0.88888,-41.99999 V 525.3333 h 14.66666 14.66667 v 42 41.99999 H 326.2222 c -7.57778,0 -14.17778,-0.4 -14.66667,-0.88889 z m 30.66667,0 c -0.48889,-0.48889 -0.88889,-19.38888 -0.88889,-41.99999 V 525.3333 h 35.30782 35.30782 l 0.38569,29.66666 0.38568,29.66667 0.30649,-29.71331 0.3065,-29.71331 13.44851,0.37998 13.44852,0.37997 -0.16912,40.60949 c -0.093,22.33522 -0.49393,40.93522 -0.89092,41.33333 -0.397,0.39812 -6.22272,0.72385 -12.94607,0.72385 h -12.22426 l -0.74804,-12 -0.74804,-12 -0.25196,11.52401 c -0.19939,9.11982 -0.69196,11.69286 -2.36101,12.33333 -2.88248,1.10612 -66.55791,1.03124 -67.66872,-0.0796 z m 103.73021,-41.1111 0.0476,-42.66667 47.93189,-0.35046 c 36.30028,-0.26542 48.18953,-0.75076 48.99358,-2 0.58392,-0.90725 1.04188,-30.07685 1.01768,-64.82134 -0.0242,-34.74449 0.2787,-63.49449 0.6731,-63.88889 0.39439,-0.39439 0.73372,10.63292 0.75407,24.50514 0.10288,70.14377 -0.18346,104.71913 -0.88232,106.54033 -0.67011,1.74628 -7.16011,2.01522 -48.63066,2.01522 -26.32153,0 -47.98555,0.15 -48.14225,0.33333 -0.15669,0.18334 -0.62809,18.93334 -1.04755,41.66667 l -0.76266,41.33333 z m 383.98536,40.31875 c -1.30298,-3.39549 0.0401,-81.6576 1.39551,-81.31963 1.88629,0.47033 2.52646,83.00087 0.64381,83.00087 -0.76679,0 -1.68449,-0.75655 -2.03932,-1.68124 z m 7.39551,-40.31875 v -42 h 33.33333 33.33333 v 42 41.99999 h -33.33333 -33.33333 z m 67.99999,0 v -42 h 30 30 v 42 41.99999 h -30 -30 z m 64,0 c 0,-27.11111 0.47266,-42 1.33333,-42 0.86067,0 1.33333,14.88889 1.33333,42 0,27.1111 -0.47266,41.99999 -1.33333,41.99999 -0.86067,0 -1.33333,-14.88889 -1.33333,-41.99999 z M 310.66665,521.99996 c 0,-1.1 -0.9,-1.99999 -2,-1.99999 -1.74911,0 -2,-7.77778 -2,-62 0,-54.22222 0.25089,-62 2,-62 1.11111,0 2,-1.18518 2,-2.66666 0,-2.50505 0.88888,-2.66667 14.66666,-2.66667 h 14.66667 v 66.66666 66.66666 h -14.66667 c -12.14815,0 -14.66666,-0.34343 -14.66666,-2 z m 30.66666,-64.6754 v -66.67541 l 49.33333,0.0686 c 42.73273,0.0594 49.33333,0.3338 49.33333,2.05059 0,3.25726 1.76776,3.38238 51.50451,3.64537 l 47.82882,0.25291 0.28715,61.65048 0.28714,61.65048 -49.62047,0.34952 c -38.83736,0.27356 -49.54805,0.7117 -49.28715,2.01618 0.24972,1.24859 -3.17506,1.66666 -13.65308,1.66666 h -13.98641 l -0.36085,-60.33332 -0.36085,-60.33333 -0.3194,60.33333 -0.31941,60.33332 h -35.33333 -35.33333 z m 488.86892,57.67541 c -1.70189,-18.0201 -1.01621,-124.60462 0.79771,-124.00019 1.97405,0.65778 3.17334,133.00018 1.20526,133.00018 -0.63414,0 -1.53547,-4.04999 -2.00297,-8.99999 z m 7.15574,-130.65679 c 0.0232,-93.97314 -0.41129,-139.80539 -1.3284,-140.1111 -0.88256,-0.29418 -1.36296,-12.87704 -1.36296,-35.69905 V 173.2883 l 34.33333,0.35585 34.33333,0.35584 0.35619,34.50251 c 0.25124,24.33702 -0.0915,35.04193 -1.16326,36.33333 -1.1122,1.34012 -1.11833,1.83082 -0.0229,1.83082 1.08791,0 1.49659,19.47266 1.49659,71.3092 v 71.30919 l -31.66667,0.38278 -31.66666,0.38278 31.66666,0.30802 31.66667,0.30802 v 66.66666 66.66666 h -33.33826 -33.33826 z m 48.30864,-138.67187 c -8.25,-0.23393 -21.75,-0.23393 -30,0 -8.25,0.23393 -1.5,0.42532 15,0.42532 16.5,0 23.25,-0.19139 15,-0.42532 z m 19.66666,211.66199 v -66.66666 h 30 30 v 66.66666 66.66666 h -30 -30 z m 64,0 c 0,-43.55555 0.46222,-66.66666 1.33333,-66.66666 1.17279,0 1.79727,14.8926 1.56548,37.33333 -0.0341,3.3 -0.10027,26.25 -0.14706,51 -0.0549,29.05438 -0.55755,44.99999 -1.41842,44.99999 -0.87111,0 -1.33333,-23.1111 -1.33333,-66.66666 z m -762.3466,1 0.34665,-61.66666 49,-0.34976 48.99999,-0.34976 v 62.01642 62.01643 h -49.34664 -49.34665 z m 239.15595,-68.44238 c -0.44512,-1.15997 -0.80932,-20.29578 -0.80932,-42.52401 0,-46.79665 1.98541,-42.0336 -17.52107,-42.0336 -9.52903,0 -13.03949,-0.42632 -12.37421,-1.50276 1.28387,-2.07735 26.43179,-0.8184 29.17793,1.4607 1.76434,1.46427 2.05069,7.45071 2.05069,42.87199 v 41.17007 l 43.66666,0.15775 c 24.01667,0.0868 45.46666,0.61578 47.66666,1.17558 2.2,0.55981 -17.3858,1.08882 -43.52401,1.17558 -42.19914,0.14008 -47.61469,-0.0786 -48.33333,-1.9513 z m -135.16248,-40.22428 0.35317,-39.66666 14.33333,-0.37844 14.33334,-0.37845 v 40.04511 40.04511 h -14.68651 -14.68651 z m 30.35317,-0.33333 v -40 h 35.33333 c 27.36689,0 35.33794,0.37578 35.35375,1.66667 0.0158,1.29304 0.26472,1.28161 1.11019,-0.051 0.79781,-1.25745 4.63249,-1.61467 14.31292,-1.33333 l 13.22314,0.38431 0.39272,35.33333 c 0.21599,19.43333 0.0388,37.28333 -0.39376,39.66666 l -0.78646,4.33334 H 426.62667 413.3742 l -0.37505,-38.33333 -0.37505,-38.33333 -0.31206,38.33333 -0.31207,38.33333 h -35.33333 -35.33333 z m 489.05408,39.66666 c -0.15357,-0.18333 -0.60357,-31.19483 -1,-68.91445 l -0.72078,-68.58111 -4.66667,-0.14862 c -2.56666,-0.0817 -88.51666,-0.27024 -190.99998,-0.41888 -123.15316,-0.17862 -186.33332,-0.72235 -186.33332,-1.60359 0,-0.88276 65.33333,-1.33334 193.33332,-1.33334 h 193.33332 v 70.66667 c 0,63.64445 -0.40711,73.36412 -2.94589,70.33332 z m 74.94588,-70.99999 v -71.33333 h 30 30 v 71.33333 71.33333 h -30 -30 z m 64,0 c 0,-46.66666 0.46106,-71.33333 1.33333,-71.33333 0.87228,0 1.33333,24.66667 1.33333,71.33333 0,46.66666 -0.46105,71.33333 -1.33333,71.33333 -0.87227,0 -1.33333,-24.66667 -1.33333,-71.33333 z M 308.12533,304.66665 c 1.8519,-1.84945 29.12241,-2.61891 30.87028,-0.87104 0.95087,0.95087 -3.84055,1.50799 -15.41279,1.7921 -11.19591,0.27487 -16.34764,-0.0321 -15.45749,-0.92106 z m 33.76608,-0.49101 c 0.91641,-1.48278 43.04214,-1.69854 58.77523,-0.30104 9.40679,0.83557 4.27541,1.10835 -23.74535,1.26231 -19.93139,0.10951 -35.42883,-0.31576 -35.02988,-0.96127 z M 306.2222,249.77776 c -2.14489,-2.14489 0.087,-2.4214 16.44211,-2.03698 9.70027,0.22799 17.33567,0.96207 17.33567,1.66666 0,1.42027 -32.37292,1.77518 -33.77778,0.37032 z m 35.11111,-0.44444 c 0,-0.85535 12.66667,-1.33334 35.33333,-1.33334 22.66667,0 35.33333,0.47799 35.33333,1.33334 0,0.85534 -12.66666,1.33333 -35.33333,1.33333 -22.66666,0 -35.33333,-0.47799 -35.33333,-1.33333 z m 72,0 c 0,-0.81482 6.22222,-1.33334 15.99999,-1.33334 9.77778,0 16,0.51852 16,1.33334 0,0.81481 -6.22222,1.33333 -16,1.33333 -9.77777,0 -15.99999,-0.51852 -15.99999,-1.33333 z m 492.31152,-39.66667 0.35511,-35.66666 26.33333,-0.36152 c 20.04322,-0.27517 26.33333,0.0274 26.33333,1.26666 0,1.26637 0.35556,1.27264 1.6,0.0282 4.74413,-4.74413 5.06667,-2.55426 5.06667,34.4 v 36 h -30.02178 -30.02177 z m 64.57733,34.77778 c -1.49687,-1.49687 -1.05789,-121.77777 0.44444,-121.77777 0.86957,0 1.33333,21.33333 1.33333,61.33333 0,33.73333 -0.2,61.33333 -0.44444,61.33333 -0.24444,0 -0.84444,-0.4 -1.33333,-0.88889 z m -666.22218,-62 c 0,-33.85555 0.39644,-61.1591 0.88099,-60.67456 0.48454,0.48454 1.55109,-0.46546 2.37011,-2.11111 1.39863,-2.81026 2.43902,-3.01493 17.11901,-3.36775 10.09427,-0.2426 15.62989,0.11157 15.62989,1 0,0.86074 -5.41238,1.37565 -14.46002,1.37565 -20.83779,0 -18.87331,-6.7766 -18.87331,65.10498 0,39.26334 -0.46413,60.22834 -1.33334,60.22834 -0.86963,0 -1.33333,-21.4074 -1.33333,-61.55555 z m 6.66667,27.03154 c 0,-39.96109 -1.77235,-36.14265 16.77571,-36.14265 h 12.55762 v 35.33333 35.33333 h -14.66667 -14.66666 z m 30.66666,0.0129 v -34.51116 l 3,-0.80397 c 1.65,-0.44218 17.55,-0.81216 35.33333,-0.82217 l 32.33333,-0.0182 v 35.33333 35.33333 h -35.33333 -35.33333 z m 72.93009,33.66347 c -0.51155,-0.51155 -0.93009,-16.43009 -0.93009,-35.37454 v -34.44444 h 15.06666 c 9.94074,0 15.61101,0.54435 16.66667,1.6 1.24444,1.24445 1.6,1.24445 1.6,0 0,-1.23709 43.85185,-1.6 193.33332,-1.6 h 193.33332 v 35.33333 35.33333 H 639.99996 446.66664 l -0.17553,-5 -0.17552,-5 -0.82447,4.66667 -0.82448,4.66667 -14.73658,0.37453 c -8.10511,0.206 -15.15511,-0.044 -15.66666,-0.55555 z M 312.99998,171.08089 c -2.9299,-0.76567 -3.60624,-43.94133 -0.73333,-46.81423 1.02675,-1.02676 6.28148,-1.6 14.66666,-1.6 h 13.06667 v 24.66666 24.66667 l -12.33334,-0.15467 c -6.78333,-0.0851 -13.38333,-0.42906 -14.66666,-0.76443 z m 30.66666,0 c -2.11277,-0.55213 -2.33333,-2.86915 -2.33333,-24.512 v -23.90223 h 35.33333 35.33333 v 24.66666 24.66667 l -33,-0.15467 c -18.14999,-0.0851 -34.04999,-0.42906 -35.33333,-0.76443 z m 69.66667,-23.66178 v -24.58088 l 14.33333,-0.42272 c 18.10493,-0.53394 17.44442,-0.80402 18.02108,7.36862 l 0.48563,6.88253 0.24664,-7 0.24665,-7 h 193.33332 193.33332 v 24.66666 24.66667 h -192.7085 c -170.06646,0 -192.79868,-0.23499 -193.47597,-2 -0.42211,-1.1 -1.30328,-2 -1.95816,-2 -0.65487,0 -1.19068,0.9 -1.19068,2 0,1.66183 -2.59259,2 -15.33333,2 h -15.33333 z m 421.3333,-0.0858 v -24.66666 h 34.66666 34.66667 V 146.524 c 0,20.52479 -0.29461,23.97039 -2.10905,24.66666 -1.15998,0.44513 -16.75998,0.80932 -34.66666,0.80932 h -32.55762 z m 71.60685,23.82908 c -0.5171,-0.5171 -0.94019,-11.64019 -0.94019,-24.71797 v -23.77777 h 28.4 c 20.31111,0 28.85571,0.45571 30,1.6 1.12042,1.12042 1.6,8.47443 1.6,24.53496 v 22.93497 l -29.05981,0.183 c -15.98289,0.10065 -29.48289,-0.24008 -30,-0.75719 z m 60.06226,-50.16241 c -0.83712,-2.126 -3.58822,-2.33333 -30.9606,-2.33333 -19.13901,0 -30.04185,-0.4839 -30.04185,-1.33333 0,-1.65846 58.5245,-1.80508 61.13119,-0.15315 0.98882,0.62664 1.57109,2.26746 1.29394,3.64625 -0.46637,2.32012 -0.57237,2.33305 -1.42268,0.17356 z m -624.24729,-3.52354 c -1.23549,-1.99906 24.97461,-3.17477 48.06713,-2.15615 12.01443,0.52996 21.84441,1.4997 21.84441,2.15496 0,1.56159 -68.94643,1.56276 -69.91154,10e-4 z m 71.91154,-0.14312 c -0.45322,-0.73334 0.26137,-1.37608 1.58798,-1.42832 18.16465,-0.7153 28.41202,-0.20015 28.41202,1.42832 0,0.80764 -5.75155,1.33333 -14.58798,1.33333 -8.28706,0 -14.9439,-0.5759 -15.41202,-1.33333 z m 32.66667,0.0915 c 0,-1.94321 15.68095,-2.10449 183.99998,-1.89251 206.61075,0.2602 202.66666,0.22515 202.66666,1.80102 0,0.88275 -65.33333,1.33333 -193.33332,1.33333 -118.50405,0 -193.33332,-0.48065 -193.33332,-1.24184 z m 387.99997,-0.0915 c 0,-0.84358 10.40741,-1.37415 28.33333,-1.44445 15.58333,-0.0611 29.83333,-0.30251 31.66667,-0.53645 4.50725,-0.57514 9.48501,0.65679 8.57876,2.12313 -1.0451,1.69101 -68.57876,1.55094 -68.57876,-0.14223 z"
         id="path3" />
      <path
         style="fill:#4b2d1e"
         d="m 305.64724,1151.6795 -0.31393,-42.3204 -63.66666,-0.3595 -63.66666,-0.3595 64.34936,-0.3201 64.34936,-0.3201 -0.34936,-50.3333 -0.34937,-50.3333 -64,-0.6861 -63.99999,-0.6861 64.33333,-0.3139 64.33333,-0.3139 V 904.01274 802.69222 l -64.33333,-0.35924 -64.33333,-0.35925 64.33333,-0.32023 64.33333,-0.32022 v -26.66667 -26.66666 l -64.33333,-0.31983 -64.33333,-0.31982 62.61336,-0.36021 c 38.00065,-0.21861 63.11984,-0.86669 63.90182,-1.64867 0.82907,-0.82906 0.37267,-2.36115 -1.28003,-4.29699 -2.04569,-2.39616 -2.09356,-2.64073 -0.23516,-1.20158 2.20861,1.71037 2.33333,-0.031 2.33333,-32.57853 0,-18.91201 0.33946,-34.04602 0.75436,-33.63112 0.41489,0.41489 0.69598,15.86199 0.62464,34.32688 -0.0988,25.57976 0.24678,33.33984 1.45166,32.59519 0.88404,-0.54637 1.23065,-0.40988 0.78603,0.30953 -0.76112,1.23152 13.54779,15.04239 24.95636,24.08774 4.77122,3.78288 5.52705,4.02173 6.32891,2 0.70144,-1.76853 0.93214,-1.52087 1.00433,1.07813 0.13812,4.97296 33.35297,33.23535 39.28272,33.42552 3.61595,0.11596 3.75294,0.24345 1.0745,1 -3.26484,0.92218 -0.32225,3.94975 22.73649,23.39308 l 7.66666,6.4646 v -14.77859 -14.7786 l -12.33333,-0.39025 -12.33333,-0.39025 13.33333,-0.65979 c 7.33333,-0.36288 22.63333,-0.33657 34,0.0585 l 20.66666,0.71824 -21,0.28176 -20.99999,0.28176 v 15.2395 15.23951 l 13.66666,11.81281 c 7.51667,6.49705 15.33677,13.09144 17.37801,14.6542 2.13893,1.63755 3.12751,3.20221 2.33333,3.69304 -0.92038,0.56882 -1.37801,24.29362 -1.37801,71.43962 v 70.58797 h 123.6 c 68.31799,0 123.03345,-0.5088 122.33332,-1.1376 -0.69667,-0.6256 -12.36667,-10.94973 -25.93333,-22.9425 -13.56667,-11.99277 -32.16667,-28.47077 -41.33333,-36.61778 -16.40131,-14.57689 -39.82132,-35.05634 -85.5054,-74.76954 -12.73869,-11.07376 -35.61408,-31.00385 -50.8342,-44.28908 -19.81719,-17.29791 -28.33353,-23.94258 -29.99999,-23.40679 -1.74583,0.56132 -1.88204,0.42959 -0.54535,-0.52737 1.36854,-0.97977 0.31415,-2.47762 -4.54683,-6.45911 -3.48069,-2.85095 -8.10937,-6.84611 -10.28595,-8.87814 -2.17658,-2.03203 -9.58051,-8.50432 -16.45318,-14.38287 l -12.49575,-10.68827 -0.24022,9.04953 -0.24021,9.04954 -0.75979,-9.92898 -0.75978,-9.92898 -7.04995,-5.73768 -7.04995,-5.73769 h -27.86557 -27.86557 l -0.53777,4.33333 -0.53776,4.33334 -0.21338,-4.2833 -0.21338,-4.2833 -12.33334,-0.43998 -12.33333,-0.43998 12.29948,-0.27672 12.29947,-0.27672 0.40358,-21 0.40359,-21 0.29694,21 0.29694,21 h 26.66667 c 14.66666,0 26.66666,-0.25254 26.66666,-0.56119 0,-0.30866 -10.35,-9.41792 -23,-20.2428 -12.65,-10.82489 -24.3816,-20.90663 -26.07022,-22.40387 -2.64309,-2.34353 -3.26345,-2.44888 -4.45911,-0.7572 -1.17972,1.66912 -1.2855,1.63882 -0.70242,-0.20116 0.78666,-2.48237 -3.92128,-7.23218 -19.76824,-19.94403 -5.86667,-4.70603 -10.96667,-8.90018 -11.33334,-9.32034 -0.36666,-0.42015 -1.75469,-1.16592 -3.08451,-1.65725 -1.32981,-0.49133 -2.06039,-1.47169 -1.62351,-2.17858 0.43689,-0.70689 -1.20286,-3.26113 -3.64388,-5.67608 -2.44102,-2.41496 -2.87761,-3.04083 -0.9702,-1.39083 1.90741,1.65 3.87223,3 4.36627,3 0.49404,0 1.07495,-11.55 1.29091,-25.66667 L 306.06106,614 l 0.31319,26.66666 0.3132,26.66667 3.58875,1.66666 c 2.10277,0.97656 9.01034,1.66667 16.68227,1.66667 h 13.09351 l -0.35933,-29 -0.35934,-28.99999 -15.33333,-0.54181 c -8.43333,-0.29799 -62.13333,-0.90876 -119.33333,-1.35725 L 100.66666,609.95216 203.68538,609.64275 306.7041,609.33333 306.35204,567 l -0.35206,-42.33333 -50.59804,-0.34962 c -38.44293,-0.26564 -50.84985,-0.7461 -51.64625,-2 -2.2209,-3.49676 -1.28656,-124.10835 0.98657,-127.35369 l 2.0756,-2.96335 h 49.85293 49.85294 l 0.10491,-41.31145 c 0.0577,-22.7213 0.45405,-42.2213 0.88078,-43.33333 0.63321,-1.65012 3.69153,-2.02188 16.63321,-2.02188 h 15.85735 V 276.8775 248.42166 l -25,-0.87372 c -13.75,-0.48054 -50.2,-1.01667 -81,-1.19139 l -55.99999,-0.31767 63.99999,-0.68609 64,-0.6861 0.38277,-58.66666 c 0.4217,-64.63391 0.28572,-66.88396 -4.09354,-67.73147 l -2.9559,-0.57204 3,-0.18158 3,-0.18157 V 73.111106 c 0,-24.32222 0.28711,-43.935113 0.63802,-43.584205 0.3509,0.350908 0.67935,21.518155 0.72988,47.038326 0.0879,44.414093 0.19354,46.308303 2.46697,44.250873 1.87226,-1.69437 5.38748,-2.14944 16.60345,-2.14944 h 14.22835 l 0.30627,-44.999998 0.30627,-44.999997 0.69373,44.666663 0.69373,44.666662 34.99999,0.35547 35,0.35547 0.30627,-45.02213 0.30627,-45.022135 0.69373,44.666663 0.69373,44.666662 14.48556,0.37999 c 12.61599,0.33094 14.71858,0.0728 16.29093,-2 1.70236,-2.24419 1.80779,-2.24685 1.84777,-0.0466 0.0402,2.21129 10.15295,2.33333 193.35799,2.33333 h 193.31559 l 0.3694,-44.999998 0.36941,-44.999997 0.315,45.022507 0.31499,45.022508 34.33333,-0.35584 34.33333,-0.35585 0.69373,-44.666662 0.69373,-44.666663 0.30627,44.999997 0.30627,44.999998 h 29.93375 c 27.10171,0 30.06232,0.22076 31.29278,2.33333 0.94452,1.62163 1.43235,-12.10407 1.59937,-44.999995 0.13217,-26.033332 0.46428,-45.83333 0.73801,-43.999997 0.27374,1.833333 0.63384,50.43333 0.80023,107.999992 l 0.30252,104.66666 57.99997,0.68796 58,0.68796 -58.3333,0.31204 -58.33333,0.31204 v 71.31931 71.31932 l 58.33333,0.36173 58.3333,0.36173 -58.3333,0.31895 -58.33333,0.31895 v 66.65265 66.65265 l 58.33333,0.36172 58.3333,0.36173 -58.3333,0.31896 -58.33333,0.31895 v 42 41.99999 l 58.33333,0.31204 58.3333,0.31204 -58,0.68796 -57.99997,0.68796 -0.34264,22 c -0.24432,15.68652 -0.91393,23.44262 -2.33334,27.02698 -2.30669,5.82499 -2.4829,7.63969 -0.74183,7.63969 0.68687,0 1.49085,-1.95 1.78662,-4.33334 0.29577,-2.38333 0.63378,15.31036 0.75115,39.31932 l 0.21338,43.65265 58.33333,0.36173 58.3333,0.36173 -58.3333,0.31895 L 969.33327,748 v 26.65265 26.65265 l 58.33333,0.36173 58.3333,0.36173 -58.3333,0.31895 -58.33333,0.31895 v 101.31931 101.31923 l 58.33333,0.3618 58.3333,0.3617 -58.3333,0.3189 -58.33333,0.319 v 23.7172 23.7172 l 18.33333,16.7602 c 10.08333,9.2181 23.833,21.4953 30.5548,27.2828 6.7218,5.7874 12.2723,10.8226 12.3345,11.1893 0.062,0.3666 -13.6791,0.4951 -30.536,0.2856 l -30.64904,-0.3811 -0.37154,42.3811 -0.37154,42.381 -0.31392,-42.3333 -0.31393,-42.3333 -28.99999,0.042 c -25.79055,0.038 -28.71357,0.259 -26.41183,2 1.4235,1.0766 1.94696,1.9576 1.16326,1.9576 -0.7837,0 -2.17185,-0.9 -3.08476,-2 -4.92836,-5.9383 -5.2823,-3.4611 -5.66737,39.6666 l -0.37203,41.6667 -0.31363,-41.6667 -0.31364,-41.6666 h -34.66667 -34.66666 v 11.5616 c 0,9.0752 0.50183,12.1529 2.33333,14.3104 2.16849,2.5545 2.17032,2.6225 0.0259,0.9632 -2.16972,-1.6789 -2.33049,-0.01 -2.69351,28.023 l -0.38606,29.8084 -0.30649,-30.5617 c -0.26967,-26.8898 -0.58683,-30.8919 -2.63983,-33.3103 -2.22222,-2.6178 -2.22222,-2.6626 0,-0.9417 2.17902,1.6874 2.33334,1.0907 2.33334,-9.023 v -10.8299 H 821.2546 c -9.27591,0 -11.86035,0.3867 -11.13773,1.6666 0.75277,1.3334 0.58184,1.3334 -0.85464,0 -1.41816,-1.3163 -39.83326,-1.6666 -182.75115,-1.6666 -143.51687,0 -181.09468,0.3448 -181.62806,1.6666 -0.53801,1.3334 -0.69357,1.3334 -0.77778,0 -0.0777,-1.2305 -4.11321,-1.6666 -15.41986,-1.6666 h -15.31461 l -0.37147,42.3333 -0.37147,42.3333 -0.31392,-42.3333 -0.31393,-42.3333 H 376.68564 341.3713 l -0.37202,41.6666 -0.37203,41.6667 -0.31364,-41.6667 -0.31363,-41.6666 H 323.35204 306.7041 l -0.37147,42.3333 -0.37147,42.3333 z m 500.36037,-45.0005 c -0.91472,-1.4801 -33.75692,-31.2384 -56.07799,-50.8123 -8.02799,-7.0399 -22.03177,-19.3399 -31.11953,-27.3333 -9.08776,-7.9934 -18.38776,-16.1591 -20.66667,-18.1459 l -4.14347,-3.6125 -124.33332,-0.054 -124.33333,-0.054 v 50.6667 50.6666 h 180.74535 c 119.0256,0 180.46657,-0.451 179.92896,-1.3209 z M 339.97896,940.22093 339.96559,775.1086 328.37827,765.22094 c -6.37302,-5.43821 -12.96529,-10.98121 -14.64947,-12.31776 l -3.06215,-2.43011 v 25.4301 c 0,25.42928 9e-5,25.43012 3,25.61169 l 3,0.18157 -3,0.57783 -3,0.57782 v 101.24059 101.24063 l 13.66666,0.2812 13.66667,0.2812 -13.66667,0.4321 -13.66666,0.4321 v 49.2867 49.2867 h 14.66284 14.66284 z m 72.02101,115.77897 v -49.3333 l -28.33333,-0.3054 -28.33333,-0.3053 28.33333,-0.3878 28.33333,-0.3879 V 921.63424 837.98826 L 391.4655,820.32744 370.93102,802.66661 H 356.13186 341.3327 l 0.0179,151.33333 0.0179,151.33336 h 35.31569 35.31569 z m -62.66666,-50 c 0,-0.3666 0.3,-0.6666 0.66667,-0.6666 0.36666,0 0.66666,0.3 0.66666,0.6666 0,0.3667 -0.3,0.6667 -0.66666,0.6667 -0.36667,0 -0.66667,-0.3 -0.66667,-0.6667 z m 90.66666,49.9517 V 1006.57 l -13,0.3816 -13,0.3817 -0.34976,49 -0.34976,49 h 13.34976 13.34976 z m 393.33331,16.1239 c 0,-32.0472 -0.0998,-33.3276 -2.74108,-35.1776 -1.5076,-1.056 -9.41682,-8.14 -17.57605,-15.7423 l -14.83498,-13.8223 -40.75727,-0.7047 -40.75728,-0.7046 40.66666,-0.273 40.66667,-0.273 12.66666,12.0618 c 6.96667,6.6339 14.91667,13.8743 17.66667,16.0896 l 5,4.0279 v -15.4453 -15.4454 l -8.33334,-0.2569 -8.33333,-0.2569 8.37269,-0.4744 8.37268,-0.4744 -0.37268,-16.87118 -0.37269,-16.87115 -14,-12.59027 c -34.13838,-30.7008 -56.15382,-50.32189 -85.99999,-76.64681 -17.6,-15.52356 -35,-31.13789 -38.66667,-34.69851 -13.79565,-13.39668 55.44269,47.50701 110.81314,97.47386 14.83065,13.38333 27.31478,24.33333 27.74251,24.33333 0.42772,0 0.77768,-7.14996 0.77768,-15.88879 0,-15.15501 -0.14639,-16.00169 -3.16977,-18.33333 -1.74338,-1.3445 -18.33666,-15.94455 -36.87395,-32.44454 -18.5373,-16.5 -41.90581,-37.2 -51.93002,-46 -28.34039,-24.87929 -42.65137,-37.70739 -51.53167,-46.19202 -6.87273,-6.56652 -8.99271,-7.84191 -13.33333,-8.02136 -5.04079,-0.2084 -5.05822,-0.22608 -0.74698,-0.75718 6.18591,-0.76205 6.63013,-0.24723 -24.41427,-28.2942 l -28,-25.2965 -104.99999,-0.0153 -104.99999,-0.0153 v 3.84298 c 0,3.17754 1.8866,5.42209 10.89547,12.96262 5.99251,5.01581 13.04251,10.91729 15.66666,13.11441 6.62349,5.54562 66.81123,58.09329 85.43786,74.59261 8.43333,7.47017 19.83333,17.41643 25.33333,22.1028 5.5,4.68636 15.1,13.08553 21.33333,18.66481 6.23333,5.57928 13.49992,11.90684 16.14798,14.06125 2.64805,2.1544 15.52256,13.51709 28.61002,25.25042 13.08746,11.73334 26.60893,23.73334 30.0477,26.66667 14.41789,12.29869 48.00687,41.78888 58.52763,51.38548 6.23333,5.6858 23.93333,21.4165 39.33333,34.9571 15.4,13.5406 36.69999,32.4735 47.33333,42.0732 l 19.33333,17.454 11,0.065 11,0.065 z M 749.68633,963.55716 c -23.63916,-21.38981 -44.93916,-40.94178 -47.33333,-43.44883 -4.94261,-5.17563 2.43036,1.22693 29.04822,25.22494 50.07441,45.14587 63.88321,57.97393 61.59873,57.22393 -0.18334,-0.06 -19.67446,-17.61024 -43.31362,-39.00004 z m -68.35304,-61.66983 c -8.43334,-7.71448 -17.13333,-15.89517 -19.33333,-18.17929 -2.2,-2.28413 4.17878,3.14985 14.17508,12.0755 16.6938,14.90584 22.29181,20.2865 20.98817,20.17326 -0.27312,-0.0237 -7.39659,-6.35498 -15.82992,-14.06947 z m -38,-34.74759 -13.33333,-12.77635 13.66666,12.29827 c 11.99435,10.79339 14.67326,13.46487 13.33334,13.29636 -0.18334,-0.0231 -6.33334,-5.79128 -13.66667,-12.81828 z m -20.06273,-18.1398 -5.2706,-5.66666 5.66666,5.27059 c 3.11667,2.89883 5.66667,5.44883 5.66667,5.66667 0,1.00877 -1.16113,-6.5e-4 -6.06273,-5.2706 z m -18.60393,-16.5218 -12,-11.4411 10.81725,9.45796 c 10.00142,8.74466 14.89717,13.56355 13.67934,13.46459 -0.27313,-0.0222 -5.89659,-5.18885 -12.49659,-11.48145 z m 77.89908,5.18847 -3.23242,-3.66667 3.66666,3.23242 c 2.01667,1.77783 3.66667,3.42783 3.66667,3.66667 0,1.0457 -1.07973,0.19463 -4.10091,-3.23242 z m -9.3042,-8 -4.59489,-5 5,4.59489 c 2.75,2.52719 5,4.77719 5,5 0,1.01816 -1.12829,0.059 -5.40511,-4.59489 z m -9.36247,-8 -3.23242,-3.66667 3.66667,3.23242 c 3.42705,3.02119 4.27812,4.10092 3.23242,4.10092 -0.23884,0 -1.88884,-1.65 -3.66667,-3.66667 z m -8,-6.66666 -3.23242,-3.66667 3.66667,3.23242 c 3.42705,3.02118 4.27812,4.10091 3.23242,4.10091 -0.23884,0 -1.88884,-1.65 -3.66667,-3.66666 z m -17.20277,-9.51968 c -0.0163,-1.01916 -1.07965,-2.65007 -2.36298,-3.62426 -2.01773,-1.53168 -1.25127,-1.75243 5.66667,-1.63208 4.4,0.0765 6.5,0.40323 4.66666,0.72596 -1.83333,0.32274 -4.36999,1.89103 -5.63702,3.48509 -1.48283,1.86558 -2.31424,2.23804 -2.33333,1.04529 z M 509.3333,801.99995 c 0,-0.36667 0.3,-0.66667 0.66667,-0.66667 0.36666,0 0.66666,0.3 0.66666,0.66667 0,0.36666 -0.3,0.66666 -0.66666,0.66666 -0.36667,0 -0.66667,-0.3 -0.66667,-0.66666 z m 2.66667,0 c 0,-0.36667 0.3,-0.66667 0.66666,-0.66667 0.36667,0 0.66667,0.3 0.66667,0.66667 0,0.36666 -0.3,0.66666 -0.66667,0.66666 -0.36666,0 -0.66666,-0.3 -0.66666,-0.66666 z m 105.33332,-1.33334 c 0,-0.36666 0.3,-0.66666 0.66667,-0.66666 0.36667,0 0.66667,0.3 0.66667,0.66666 0,0.36667 -0.3,0.66667 -0.66667,0.66667 -0.36667,0 -0.66667,-0.3 -0.66667,-0.66667 z m 5.63528,-12.75965 c -6.76607,-5.91781 -12.30194,-11.09135 -12.30194,-11.49676 0,-0.4054 4.65,3.34335 10.33333,8.33058 13.4748,11.82438 15.72802,13.92583 14.93157,13.92583 -0.36356,0 -6.1969,-4.84184 -12.96296,-10.75965 z m -16.47202,-14.24035 c -1.65849,-2.11474 -1.61133,-2.1619 0.50341,-0.5034 2.221,1.74182 2.9273,2.83674 1.82993,2.83674 -0.27688,0 -1.32688,-1.05 -2.33334,-2.33334 z m 282.83672,316.83709 -15.33333,-14.782 15,13.621 15,13.6211 0.0451,-32.482 0.0451,-32.4819 -14.37848,-13.8321 c -14.31961,-13.7754 -14.32789,-13.787 -2.02109,-2.8337 6.79656,6.0491 12.68197,11.5235 13.07868,12.1654 2.36068,3.8197 3.28815,-0.1183 2.94391,-12.4996 l -0.37998,-13.6666 -9.33333,-0.7646 -9.33333,-0.7645 9.7594,-0.2355 c 8.60171,-0.2075 9.70886,-0.5204 9.33333,-2.6376 -0.34509,-1.9456 -50.16855,-47.87675 -65.19525,-60.10204 l -3.89748,-3.17088 v 16.04665 16.04665 l 15,14.30372 c 9.63552,9.18826 11.18526,10.95007 4.33333,4.92633 -5.86666,-5.15757 -12.12125,-10.93835 -13.89908,-12.84617 -5.02558,-5.39303 -5.43425,-4.50078 -5.43425,11.86457 v 15.33337 h 20.88889 c 11.48889,0 20.51886,0.37 20.06661,0.8222 -0.45225,0.4523 -9.70225,0.9023 -20.55556,1 l -19.73327,0.1778 -0.378,15.9387 -0.378,15.9387 11.14088,10.7279 c 10.04735,9.675 6.89177,7.3024 -6.05155,-4.5499 l -5,-4.5785 v 32.2615 32.2616 l 35,-0.024 35,-0.024 z m -23.99999,-21.8371 c -3.23871,-3.3 -5.58856,-6 -5.22189,-6 0.36666,0 3.31651,2.7 6.55522,6 3.2387,3.3 5.58855,6 5.22189,6 -0.36667,0 -3.31652,-2.7 -6.55522,-6 z m 14.66666,-62.6667 c 0,-0.3666 0.3,-0.6666 0.66667,-0.6666 0.36666,0 0.66666,0.3 0.66666,0.6666 0,0.3667 -0.3,0.6667 -0.66666,0.6667 -0.36667,0 -0.66667,-0.3 -0.66667,-0.6667 z m -12,-2.6666 c 0,-0.3667 0.3,-0.6667 0.66667,-0.6667 0.36666,0 0.66666,0.3 0.66666,0.6667 0,0.3666 -0.3,0.6666 -0.66666,0.6666 -0.36667,0 -0.66667,-0.3 -0.66667,-0.6666 z m 99.89823,78.8077 0.15441,-23.1922 -23.66407,-21.1411 c -42.95288,-38.3734 -39.05504,-36.7625 -39.05577,-16.1411 l -5.3e-4,15 15.00053,14.4439 15.00053,14.4438 -13.75628,-12.4438 c -7.56595,-6.8442 -14.31595,-12.6439 -14.99999,-12.8883 -0.74774,-0.2673 -1.24373,12.6271 -1.24373,32.3333 v 32.7778 h 31.20525 31.20524 z M 948.6666,1077.7799 935.33327,1065 l 12.15375,10.8136 c 11.22999,9.9918 16.24034,14.932 15.00951,14.7996 -0.27313,-0.029 -6.49659,-5.8044 -13.82993,-12.8333 z m 68.4444,26.2762 c -0.2444,-0.7025 -10.9444,-10.7202 -23.77773,-22.2615 l -23.33334,-20.9844 -0.37427,17.0756 c -0.25098,11.4509 0.1322,17.6858 1.16326,18.9282 1.11666,1.3455 1.12787,1.8526 0.0409,1.8526 -0.82313,0 -1.49659,1.5 -1.49659,3.3333 v 3.3334 h 24.11111 c 14.78776,0 23.93926,-0.4939 23.66666,-1.2772 z m -49.11107,-74.7228 v -22.6667 l -20.33333,-0.2959 -20.33333,-0.2959 20.33333,-0.4055 20.33333,-0.4055 V 903.96521 802.66661 H 936.6666 905.33327 v 97.02317 97.02317 l 30.33333,27.55495 c 16.68334,15.1553 30.78333,27.5948 31.33333,27.6435 0.55,0.049 1,-10.1115 1,-22.5781 z m -526.99701,-95.44886 0.33628,-70.78217 -13.24016,-11.55116 c -7.28208,-6.35314 -13.58341,-11.55117 -14.00294,-11.55117 -0.41954,0 -0.76279,37.22099 -0.76279,82.71331 v 82.71335 l 13.66666,-0.38 13.66667,-0.38 z m 466.55257,70.55996 c -0.48888,-0.4889 -1.28888,-0.4889 -1.77777,0 -0.48889,0.4889 -0.0889,0.8889 0.88889,0.8889 0.97777,0 1.37777,-0.4 0.88888,-0.8889 z m -3.55555,-105.77779 v -96 l -32.33333,-0.30849 -32.33333,-0.3085 32.33333,-0.38187 32.33333,-0.38188 0.2812,-13.64296 0.28119,-13.64296 0.43212,13.66666 0.43211,13.66667 h 31.28669 31.28668 v -26.66667 -26.66666 h -22.96412 -22.96412 l -8.36921,8.29481 c -4.60306,4.56215 -8.36921,8.96215 -8.36921,9.77778 0,0.81563 -0.75,1.48909 -1.66666,1.49657 -0.91667,0.007 -5.68517,2.83185 -10.59667,6.27637 -15.74321,11.041 -33.20252,18.91779 -56.6903,25.57588 -3.12519,0.8859 -2.38805,134.62123 0.75415,136.82212 2.99157,2.09537 47.02192,41.44103 57.51575,51.39625 4.04272,3.83522 7.8004,6.98522 8.3504,7 0.55,0.0148 1,-43.17313 1,-95.97312 z m -71.00005,-98.11116 c -0.19731,-0.19731 -4.25302,0.4759 -9.01268,1.49603 -6.63458,1.42198 -22.65464,1.87048 -68.65393,1.92204 -33,0.037 -60.80828,0.57951 -61.79619,1.20559 -2.12103,1.34418 -1.23427,2.19733 40.46286,38.92879 16.13333,14.21203 31.43333,27.74725 34,30.07827 2.56666,2.33101 18.16666,16.25227 34.66666,30.93613 l 30,26.69792 0.34602,-65.45301 c 0.19031,-35.99915 0.18458,-65.61444 -0.0127,-65.81176 z m -464.39991,-0.3614 c -13.86994,-12.47445 -25.91333,-22.86077 -26.50806,-22.86077 -0.41723,0 -0.75861,5.4 -0.75861,12 v 12 h 14.26667 c 7.98998,0 13.70939,-0.50121 13,-1.13923 z m 458.39996,-2.76517 6.33334,-1.64489 v -23.89202 -23.89202 l -102.33333,-0.32493 -102.33333,-0.32494 102.33333,-0.35001 102.33333,-0.35001 -0.0125,-52.32505 -0.0125,-52.32505 -3.84355,6.66666 c -5.66933,9.83347 -16.6987,19.69718 -25.8481,23.11629 -7.71127,2.88169 -7.80565,2.88371 -134.41202,2.88371 -100.96922,0 -126.50426,0.33843 -125.75437,1.66667 0.75277,1.33333 0.58184,1.33333 -0.85464,0 -1.36063,-1.26293 -12.14751,-1.65799 -44.52894,-1.63085 l -42.73333,0.0358 9.33334,8.78892 9.33333,8.78892 -10.19941,-8.82473 c -13.07698,-11.31448 -17.018,-11.8796 -17.37425,-2.49141 l -0.24034,6.33334 -0.50109,-6.375 -0.50109,-6.375 -15.59191,0.375 -15.59191,0.375 v 35.33333 35.33333 h 15.33333 15.33334 l 0.82448,-4.66667 0.82447,-4.66666 0.17552,4.96708 0.17553,4.96709 86.99999,-0.0272 86.99999,-0.0272 -9.99999,-9.48156 c -5.5,-5.21486 -19.3,-17.70575 -30.66667,-27.75754 -20.39669,-18.03724 -34.71778,-31.24215 -28.07866,-25.89022 9.29453,7.49251 37.70295,32.67002 61.2111,54.24952 5.39241,4.95 10.679,9 11.74799,9 1.06899,0 1.62764,0.51125 1.24146,1.13611 -0.38619,0.62486 5.4284,6.58081 12.92131,13.23544 7.4929,6.65464 20.22346,18.1501 28.29013,25.54548 l 14.66666,13.44613 69.33333,-0.478 c 49.26114,-0.33963 71.16685,-0.95421 75.66666,-2.1229 z m -259.10089,-57.0956 -3.23242,-3.66666 3.66667,3.23242 c 3.42705,3.02118 4.27811,4.10091 3.23241,4.10091 -0.23883,0 -1.88883,-1.65 -3.66666,-3.66667 z m -8.64963,-7.33333 -3.91612,-4.33333 4.33333,3.91612 c 4.03927,3.65037 4.9462,4.75054 3.91612,4.75054 -0.22947,0 -2.17947,-1.95 -4.33333,-4.33333 z m -72.0428,-29.33333 -2.53999,-3 3,2.53998 c 1.65,1.39699 3,2.74699 3,3 0,1.06701 -1.07306,0.27928 -3.46001,-2.53998 z m -9.29053,-8 -3.91612,-4.33333 4.33333,3.91612 c 4.03927,3.65037 4.9462,4.75054 3.91612,4.75054 -0.22946,0 -2.17946,-1.95 -4.33333,-4.33333 z m 371.1821,95.57149 c 13.41249,-4.49285 33.65758,-15.14032 45.09261,-23.71551 8.83731,-6.62715 9.15604,-7.06738 9.54886,-13.18932 l 0.40639,-6.33333 h -34.73972 -34.73972 v 23.33333 c 0,26.88741 -1.25325,25.15886 14.43158,19.90483 z m 61.56842,-38.57149 4.52311,-4.66667 h -4.92823 c -4.74336,0 -4.92822,0.17505 -4.92822,4.66667 0,2.56666 0.1823,4.66666 0.40511,4.66666 0.22281,0 2.44051,-2.1 4.92823,-4.66666 z m -498.66664,-2 c 0,-2.03096 -0.8741,-2.6561 -3.66666,-2.62231 l -3.66667,0.0444 3.14771,2.62231 c 3.91069,3.25793 4.18562,3.25501 4.18562,-0.0444 z m 0,-40 v -36 h -35.33333 -35.33333 v 9.86671 9.86671 l 14.33333,12.02006 c 7.88334,6.61103 21.82448,18.37101 30.98032,26.13329 13.73857,11.64748 17.40751,14.11323 21,14.11323 h 4.35301 z m 491.99997,-2 v -38 l -7.66667,-0.21733 -7.66666,-0.21733 7.33333,-0.78267 7.33333,-0.78267 0.35934,-29 0.35934,-28.99999 H 870.80202 837.5521 l -0.80918,9.66666 c -1.07959,12.89703 -2.42059,122.17965 -1.5278,124.5062 0.56841,1.48126 7.14508,1.82713 34.74298,1.82713 h 34.04184 z m -17.33333,-38.66667 c 0,-0.36666 0.3,-0.66666 0.66666,-0.66666 0.36667,0 0.66667,0.3 0.66667,0.66666 0,0.36667 -0.3,0.66667 -0.66667,0.66667 -0.36666,0 -0.66666,-0.3 -0.66666,-0.66667 z m 35.53926,71 c 15.41041,-16.08852 35.22904,-52.21078 36.8701,-67.20094 0.23601,-2.15581 0.79141,-4.50589 1.23423,-5.22238 2.36486,-3.82643 5.02307,-25.37752 5.02307,-40.72396 v -17.18604 h -30 -30 v 29.33333 29.33333 l 5,0.10526 c 5.16562,0.10875 4.93472,0.42107 -1.33333,1.80351 l -3.66667,0.8087 v 37.30793 37.30793 h 5.72239 c 4.99191,0 6.41527,-0.72337 11.15021,-5.66667 z m 28.90518,-71.22222 c 0.48889,-0.48889 1.28889,-0.48889 1.77777,0 0.48889,0.48889 0.0889,0.88889 -0.88888,0.88889 -0.97778,0 -1.37778,-0.4 -0.88889,-0.88889 z m 16.576,38.55556 c -0.22145,-23.99473 -0.8403,-38.24299 -1.65446,-38.09181 -0.71537,0.13283 -2.56251,4.33283 -4.10476,9.33333 -6.29688,20.41665 -17.21826,40.99375 -30.77669,57.98675 l -7.26478,9.10506 h 22.07723 22.07724 z M 339.56151,675.11705 c -0.31555,-0.31556 -4.95291,-0.39599 -10.30525,-0.17875 l -9.73152,0.39499 9.90428,8.39928 9.90429,8.39927 0.40097,-8.22053 c 0.22053,-4.52129 0.14279,-8.47871 -0.17277,-8.79426 z m 72.71264,-19.45043 c 0.26817,-14.67101 0.28279,-14.73681 0.6664,-3 0.63653,19.47464 -0.77049,18 17.17467,18 15.14904,0 15.38309,-0.0463 14.48795,-2.86663 l -0.90983,-2.86663 4.02581,2.86663 c 5.25503,3.74191 91.30262,4.56316 86.35931,0.82423 -3.40917,-2.57856 -1.5184,-2.52572 2.44042,0.0682 2.72194,1.78349 18.62536,1.98285 132.95308,1.66667 l 129.86132,-0.35914 7.33333,-4.12965 c 14.90043,-8.39094 24.95656,-25.53658 26.31965,-44.87483 l 0.72868,-10.33782 -193.85748,0.33782 c -185.145,0.32264 -193.84882,0.44479 -193.66451,2.71793 0.14755,1.81977 -0.21882,2.03835 -1.5562,0.92842 -0.97479,-0.80901 -8.14366,-1.56757 -16.19298,-1.71344 l -14.4438,-0.26175 -0.38514,12.46761 c -0.25828,8.36073 0.15687,13.192 1.26031,14.66667 1.48662,1.98678 1.40995,1.98407 -0.79435,-0.0281 -2.0795,-1.89822 -2.40169,-4.11665 -2.18172,-15.02229 l 0.25808,-12.79518 -35.07859,0.35562 -35.07858,0.35563 -0.35934,28.99999 -0.35934,29 h 35.35934 35.35933 z m 111.72581,3.66667 c -3.2387,-3.3 -5.58855,-6 -5.22188,-6 0.36666,0 3.31651,2.7 6.55522,6 3.2387,3.3 5.58855,6 5.22189,6 -0.36667,0 -3.31652,-2.7 -6.55523,-6 z m -85.33332,1.33333 c 0,-0.36666 0.3,-0.66666 0.66666,-0.66666 0.36667,0 0.66667,0.3 0.66667,0.66666 0,0.36667 -0.3,0.66667 -0.66667,0.66667 -0.36666,0 -0.66666,-0.3 -0.66666,-0.66667 z m -7.41721,-6.33333 -3.91613,-4.33333 4.33334,3.91612 c 2.38333,2.15386 4.33333,4.10386 4.33333,4.33333 0,1.03008 -1.10017,0.12315 -4.75054,-3.91612 z m 14.08387,3 c 0,-0.97778 0.4,-1.37778 0.88889,-0.88889 0.48889,0.48889 0.48889,1.28889 0,1.77778 -0.48889,0.48889 -0.88889,0.0889 -0.88889,-0.88889 z m 66.59489,-9 -4.59489,-5 5,4.59489 c 2.75,2.52719 5,4.77719 5,5 0,1.01816 -1.12829,0.059 -5.40511,-4.59489 z m -90.0121,-2 -3.91612,-4.33333 4.33333,3.91612 c 4.03928,3.65037 4.94621,4.75054 3.91613,4.75054 -0.22947,0 -2.17947,-1.95 -4.33334,-4.33333 z m 23.62774,-2.33333 c 0,-1.83334 0.30263,-2.58334 0.67251,-1.66667 0.36989,0.91667 0.36989,2.41667 0,3.33333 -0.36988,0.91667 -0.67251,0.16667 -0.67251,-1.66666 z m 54.38436,-6.33334 -4.59489,-5 5,4.59489 c 2.75,2.52719 5,4.77719 5,5 0,1.01816 -1.12829,0.059 -5.40511,-4.59489 z m -97.43162,-8 c -1.6585,-2.11474 -1.61134,-2.1619 0.5034,-0.5034 1.28334,1.00646 2.33334,2.05646 2.33334,2.33333 0,1.09738 -1.09492,0.39107 -2.83674,-1.82993 z m 86.08619,-2 -3.91613,-4.33333 4.33334,3.91612 c 2.38333,2.15387 4.33333,4.10387 4.33333,4.33334 0,1.03008 -1.10017,0.12315 -4.75054,-3.91613 z M 339.99998,567.3333 v -42 h -14.66667 -14.66666 v 41.11111 c 0,22.61111 0.4,41.5111 0.88888,41.99999 0.48889,0.48889 7.08889,0.88889 14.66667,0.88889 h 13.77778 z m 69.89094,41.19067 c 1.66905,-0.64047 2.16162,-3.21351 2.36101,-12.33333 l 0.25196,-11.52401 0.74804,12 0.74804,12 h 12.22426 c 6.72335,0 12.54907,-0.32573 12.94607,-0.72385 0.39699,-0.39811 0.7979,-18.99811 0.89092,-41.33333 l 0.16912,-40.60949 -13.44852,-0.37997 -13.44851,-0.37998 -0.3065,29.71331 -0.30649,29.71331 -0.38568,-29.66667 -0.38569,-29.66666 h -35.30782 -35.30782 v 41.11111 c 0,22.61111 0.4,41.5111 0.88889,41.99999 1.11081,1.11081 64.78624,1.18569 67.66872,0.0796 z m 423.12802,-40.85734 -0.35233,-41.66667 -50,-0.69108 -49.99999,-0.69108 50.34577,-0.30892 50.34578,-0.30892 -0.34578,-66.33332 -0.34578,-66.33333 -139.99999,-0.67589 -139.99999,-0.67588 140.33332,-0.32412 140.33333,-0.32411 V 318.66665 247.99998 H 639.99996 c -153.72163,0 -193.35489,0.34148 -193.43859,1.66667 -0.0842,1.33333 -0.23976,1.33333 -0.77777,0 -0.48521,-1.20247 -5.09786,-1.66667 -16.56141,-1.66667 h -15.88888 v 28.04185 c 0,21.24498 0.40397,28.178 1.66666,28.60359 2.47006,0.83253 30.1227,1.46521 30.06609,0.68789 -0.0267,-0.36666 0.12337,-4.26666 0.33349,-8.66666 l 0.38204,-8 0.78792,8 c 0.43335,4.4 0.33249,8.57 -0.22415,9.26666 -1.19423,1.49467 -1.38592,80.8743 -0.20274,83.95761 0.71688,1.86816 6.19412,2.10905 47.95309,2.10905 45.24505,0 47.19935,0.10387 48.52401,2.57901 1.63872,3.06198 1.91761,125.17731 0.29172,127.73719 -0.79364,1.24956 -12.67,1.73452 -48.97958,2 l -47.93189,0.35046 -0.35206,42.33333 -0.35207,42.33333 h 194.03772 194.03771 z m -288.55309,0.33333 c 0,-6.23333 0.22967,-8.78333 0.51039,-5.66666 0.28071,3.11666 0.28071,8.21666 0,11.33333 -0.28072,3.11666 -0.51039,0.56666 -0.51039,-5.66667 z m -0.46589,-42.74535 c 0,-0.77661 0.6,-1.0412 1.33334,-0.58798 0.73333,0.45323 1.33333,1.08864 1.33333,1.41202 0,0.32339 -0.6,0.58798 -1.33333,0.58798 -0.73334,0 -1.33334,-0.63541 -1.33334,-1.41202 z m 60.33333,-0.91878 c 11.55,-0.22197 30.45,-0.22197 42,0 11.55,0.22197 2.1,0.40358 -21,0.40358 -23.1,0 -32.55,-0.18161 -21,-0.40358 z m 88,0.009 c 4.95,-0.25654 13.05,-0.25654 18,0 4.95,0.25655 0.9,0.46644 -9,0.46644 -9.9,0 -13.95,-0.20989 -9,-0.46644 z M 543.99996,391.33331 c 0,-1.1 0.58117,-2 1.29149,-2 0.71032,0 0.94612,0.9 0.52402,2 -0.42211,1.1 -1.00328,2 -1.29149,2 -0.28821,0 -0.52402,-0.9 -0.52402,-2 z m 17,-8.21638 c 0.91667,-0.36988 2.41667,-0.36988 3.33334,0 0.91666,0.36989 0.16666,0.67252 -1.66667,0.67252 -1.83333,0 -2.58333,-0.30263 -1.66667,-0.67252 z M 903.99994,567.3333 v -42 h -33.33333 -33.33333 v 42 41.99999 h 33.33333 33.33333 z m 61.33333,0 v -42 h -30 -30 v 42 41.99999 h 30 30 z m -625.33329,-110 v -66.66666 h -14.66667 c -13.77778,0 -14.66666,0.16162 -14.66666,2.66667 0,1.48148 -0.88889,2.66666 -2,2.66666 -1.74911,0 -2,7.77778 -2,62 0,54.22222 0.25089,62 2,62 1.1,0 2,0.89999 2,1.99999 0,1.65657 2.51851,2 14.66666,2 h 14.66667 z m 72.3194,6.33334 0.3194,-60.33333 0.36085,60.33333 0.36085,60.33332 h 13.98641 c 10.47802,0 13.9028,-0.41807 13.65308,-1.66666 -0.2609,-1.30448 10.44979,-1.74262 49.28715,-2.01618 l 49.62047,-0.34952 -0.28714,-61.65048 -0.28715,-61.65048 -47.82882,-0.25291 c -49.73675,-0.26299 -51.50451,-0.38811 -51.50451,-3.64537 0,-1.71679 -6.6006,-1.99115 -49.33333,-2.05059 l -49.33333,-0.0686 v 66.67541 66.6754 h 35.33333 35.33333 z m 491.68056,-6.33334 v -66.66666 l -31.66667,-0.30802 -31.66666,-0.30802 31.66666,-0.38278 31.66667,-0.38278 v -71.30919 c 0,-51.83654 -0.40868,-71.3092 -1.49659,-71.3092 -1.09548,0 -1.08935,-0.4907 0.0229,-1.83082 1.07177,-1.2914 1.4145,-11.99631 1.16326,-36.33333 l -0.35619,-34.50251 -34.33333,-0.35584 -34.33333,-0.35585 v 35.24473 c 0,22.82201 0.4804,35.40487 1.36296,35.69905 0.91711,0.30571 1.35165,46.13796 1.3284,140.1111 l -0.0345,139.65678 h 33.33826 33.33826 z M 855.66661,245.67131 c 8.25,-0.23393 21.75,-0.23393 30,0 8.25,0.23393 1.5,0.42532 -15,0.42532 -16.5,0 -23.25,-0.19139 -15,-0.42532 z M 965.33327,457.3333 v -66.66666 h -30 -30 v 66.66666 66.66666 h 30 30 z m -659.99996,0.65024 v -62.01642 l -48.99999,0.34976 -49,0.34976 -0.34665,61.66666 -0.34665,61.66667 h 49.34665 49.34664 z M 339.99998,349.2882 v -40.04511 l -14.33334,0.37845 -14.33333,0.37844 -0.35317,39.66666 -0.35318,39.66667 h 14.68651 14.68651 z m 72.31206,1.71178 0.31206,-38.33333 0.37505,38.33333 0.37505,38.33333 h 13.25247 13.25247 l 0.78646,-4.33334 c 0.43256,-2.38333 0.60975,-20.23333 0.39376,-39.66666 l -0.39272,-35.33333 -13.22314,-0.38431 c -9.68043,-0.28134 -13.51511,0.0759 -14.31292,1.33333 -0.84547,1.33259 -1.09435,1.34402 -1.11019,0.051 -0.0158,-1.29089 -7.98686,-1.66667 -35.35375,-1.66667 h -35.33333 v 40 40 h 35.33333 35.33333 z m 553.02123,-33 v -71.33333 h -30 -30 v 71.33333 71.33333 h 30 30 z m -553.3333,-41.33333 v -28.66667 h -35.33333 -35.33333 v 28.66667 28.66666 h 35.33333 35.33333 z m 553.3333,-67.33333 c 0,-36.95426 -0.32254,-39.14413 -5.06667,-34.4 -1.24444,1.24445 -1.6,1.23818 -1.6,-0.0282 0,-1.23926 -6.29011,-1.54183 -26.33333,-1.26666 l -26.33333,0.36152 -0.35511,35.66666 -0.35511,35.66667 h 30.02177 30.02178 z m -625.33329,-0.66667 v -35.33333 h -12.55762 c -18.54806,0 -16.77571,-3.81844 -16.77571,36.14265 v 34.52401 h 14.66666 14.66667 z m 71.99999,0 v -35.33333 l -32.33333,0.0182 c -17.78333,0.01 -33.68333,0.37999 -35.33333,0.82217 l -3,0.80397 v 34.51116 34.51115 h 35.33333 35.33333 z m 33.49115,30 0.82447,-4.66667 0.17552,5 0.17553,5 H 639.99996 833.33328 V 208.66665 173.33332 H 639.99996 c -149.48147,0 -193.33332,0.36291 -193.33332,1.6 0,1.24445 -0.35556,1.24445 -1.6,0 -1.05566,-1.05565 -6.72593,-1.6 -16.66667,-1.6 h -15.06666 v 34.44444 c 0,18.94445 0.41854,34.86299 0.93009,35.37454 0.51155,0.51155 7.56155,0.76155 15.66666,0.55555 l 14.73658,-0.37453 z M 339.99998,147.33332 v -24.66666 h -13.06667 c -17.12898,0 -16.26666,-1.35191 -16.26666,25.50223 0,25.83569 -1.71894,23.44168 16.99999,23.67643 l 12.33334,0.15467 z m 71.99999,0 v -24.66666 h -35.33333 -35.33333 v 23.90223 c 0,21.64285 0.22056,23.95987 2.33333,24.512 1.28334,0.33537 17.18334,0.67936 35.33333,0.76443 l 33,0.15467 z m 32,22.66667 c 0,-1.1 0.53581,-2 1.19068,-2 0.65488,0 1.53605,0.9 1.95816,2 0.67729,1.76501 23.40951,2 193.47597,2 h 192.7085 V 147.33332 122.66666 H 639.99996 446.66664 l -0.24665,7 -0.24664,7 -0.48563,-6.88253 c -0.57666,-8.17264 0.0838,-7.90256 -18.02108,-7.36862 l -14.33333,0.42272 v 24.58088 24.58088 h 15.33333 c 12.74074,0 15.33333,-0.33817 15.33333,-2 z m 457.89092,1.19068 c 1.81444,-0.69627 2.10905,-4.14187 2.10905,-24.66666 v -23.85735 h -34.66667 -34.66666 v 24.66666 24.66667 h 32.55762 c 17.90668,0 33.50668,-0.36419 34.66666,-0.80932 z m 63.44238,-22.38905 c 0,-16.06053 -0.47958,-23.41454 -1.6,-24.53496 -1.14429,-1.14429 -9.68889,-1.6 -30,-1.6 h -28.4 v 23.77777 c 0,13.07778 0.42309,24.20087 0.94019,24.71797 0.51711,0.51711 14.01711,0.85784 30,0.75719 l 29.05981,-0.183 z m -82.06273,1028.19828 -5.2706,-5.6666 5.66667,5.2706 c 3.11666,2.8988 5.66666,5.4488 5.66666,5.6666 0,1.0088 -1.16113,-6e-4 -6.06273,-5.2706 z m -12.60393,-11 c -3.23871,-3.3 -5.58856,-6 -5.22189,-6 0.36667,0 3.31652,2.7 6.55522,6 3.23871,3.3 5.58856,6 5.22189,6 -0.36667,0 -3.31652,-2.7 -6.55522,-6 z m -13.40511,-12.3333 -4.59489,-5 5,4.5949 c 4.65389,4.2768 5.61305,5.4051 4.59489,5.4051 -0.22281,0 -2.47281,-2.25 -5,-5 z m 223.9017,2.6667 c -1.6585,-2.1148 -1.6113,-2.1619 0.5034,-0.5035 1.2833,1.0065 2.3333,2.0565 2.3333,2.3334 0,1.0974 -1.0949,0.3911 -2.8367,-1.8299 z m -17.1633,-14.4345 c -6.9666,-6.2259 -13.8666,-12.6108 -15.3333,-14.1888 -1.4667,-1.5779 1.7869,0.9918 7.2302,5.7105 13.1946,11.4381 22.255,19.8079 21.4365,19.8024 -0.3667,0 -6.3667,-5.0983 -13.3334,-11.3241 z m -218.08384,1.7678 -3.91612,-4.3333 4.33334,3.9161 c 4.03927,3.6504 4.9462,4.7505 3.91612,4.7505 -0.22947,0 -2.17947,-1.95 -4.33334,-4.3333 z m 78.0121,-20.6667 -4.59489,-5 5,4.5949 c 4.65389,4.2768 5.61305,5.4051 4.59489,5.4051 -0.22281,0 -2.47281,-2.25 -5,-5 z m -102.6958,-1.3333 -3.23242,-3.6667 3.66667,3.2324 c 2.01667,1.7779 3.66667,3.4279 3.66667,3.6667 0,1.0457 -1.07973,0.1946 -4.10092,-3.2324 z m 215.37154,-4.6667 -5.2706,-5.6666 5.6666,5.2706 c 5.27,4.9016 6.2794,6.0627 5.2706,6.0627 -0.2178,0 -2.7678,-2.55 -5.6666,-5.6667 z m 9.7294,-8.6611 c 7.5166,-0.2377 19.8166,-0.2377 27.3333,0 7.5167,0.2376 1.3667,0.4321 -13.6667,0.4321 -15.0333,0 -21.1833,-0.1945 -13.6666,-0.4321 z m -753.1009,-376.00552 -3.23242,-3.66666 3.66667,3.23242 c 3.42705,3.02118 4.27811,4.10091 3.23242,4.10091 -0.23884,0 -1.88884,-1.65 -3.66667,-3.66667 z m -9.98296,-8.66666 -3.91613,-4.33334 4.33334,3.91613 c 2.38333,2.15386 4.33333,4.10386 4.33333,4.33333 0,1.03008 -1.10017,0.12315 -4.75054,-3.91612 z m -9.37614,-8 -2.53998,-3 2.99999,2.53998 c 2.81926,2.38696 3.60699,3.46002 2.53999,3.46002 -0.25301,0 -1.60301,-1.35 -3,-3 z M 153.66666,668.37828 c 2.01666,-0.3055 5.31666,-0.3055 7.33333,0 2.01667,0.3055 0.36667,0.55546 -3.66667,0.55546 -4.03333,0 -5.68333,-0.24996 -3.66666,-0.55546 z m 41.44444,0.0661 c 0.48889,-0.48889 1.28889,-0.48889 1.77778,0 0.48888,0.48889 0.0889,0.88889 -0.88889,0.88889 -0.97778,0 -1.37778,-0.4 -0.88889,-0.88889 z m 19.22222,-0.0983 c 4.58333,-0.26036 12.08333,-0.26036 16.66666,0 4.58334,0.26036 0.83334,0.47339 -8.33333,0.47339 -9.16666,0 -12.91666,-0.21303 -8.33333,-0.47339 z m 834.06088,-0.005 c 5.7169,-0.25053 14.7169,-0.24901 20,0.003 5.2832,0.25241 0.6057,0.45739 -10.3943,0.45552 -11,-0.002 -15.3225,-0.20838 -9.6057,-0.45892 z m -759.13266,-14.67449 -4.59489,-5 5,4.59489 c 2.75,2.52719 5,4.77719 5,5 0,1.01816 -1.12829,0.059 -5.40511,-4.59489 z m 692.73839,-4.33333 c 0.45323,-0.73333 1.12405,-1.33333 1.49072,-1.33333 0.36666,0 0.29584,0.6 -0.15738,1.33333 -0.45323,0.73333 -1.12405,1.33333 -1.49071,1.33333 -0.36667,0 -0.29585,-0.6 0.15737,-1.33333 z m -702.75049,-4.33333 -3.91613,-4.33334 4.33334,3.91612 c 4.03927,3.65038 4.9462,4.75055 3.91612,4.75055 -0.22947,0 -2.17947,-1.95 -4.33333,-4.33333 z m 708.75049,-3 c 0,-0.36667 0.3,-0.66667 0.66667,-0.66667 0.36667,0 0.66667,0.3 0.66667,0.66667 0,0.36666 -0.3,0.66666 -0.66667,0.66666 -0.36667,0 -0.66667,-0.3 -0.66667,-0.66666 z m -787.99994,-88.5689 c 0,-25.4999 -0.2009,-27.94399 -2.33334,-28.38725 -1.89733,-0.39439 -1.77276,-0.63848 0.66667,-1.30627 l 3,-0.82126 v 29.20851 c 0,16.06468 -0.3,29.2085 -0.66667,29.2085 -0.36666,0 -0.66666,-12.556 -0.66666,-27.90223 z m -91,-29.08496 c 4.58334,-0.26036 12.08334,-0.26036 16.66667,0 4.58333,0.26036 0.83333,0.47339 -8.33333,0.47339 -9.16667,0 -12.91667,-0.21303 -8.33334,-0.47339 z m 31.33333,0.0681 c 1.28334,-0.33537 3.38334,-0.33537 4.66667,0 1.28333,0.33537 0.23333,0.60976 -2.33333,0.60976 -2.56667,0 -3.61667,-0.27439 -2.33334,-0.60976 z m 53,0.25243 c 0,-0.36667 0.3,-0.66667 0.66667,-0.66667 0.36666,0 0.66666,0.3 0.66666,0.66667 0,0.36667 -0.3,0.66667 -0.66666,0.66667 -0.36667,0 -0.66667,-0.3 -0.66667,-0.66667 z m 6.68708,-132.31709 c -0.0158,-1.27516 -11.3139,-1.73373 -49.68708,-2.01673 l -49.66666,-0.36629 49.63787,-0.31661 49.63788,-0.3166 0.39266,-25.66667 0.39266,-25.66666 0.3028,25.66666 0.30279,25.66667 4.33333,0.19977 4.33334,0.19978 -3.99567,0.5872 c -2.19762,0.32296 -4.43843,1.28306 -4.97958,2.13356 -0.72631,1.14148 -0.98927,1.11423 -1.00434,-0.10408 z m 105.33333,-85.2518 c -0.0112,-0.86289 -1.07042,-1.84329 -2.35375,-2.17866 -2.18218,-0.57026 -2.18393,-0.61978 -0.027,-0.76443 2.09459,-0.14047 2.33953,-2.6942 2.66854,-27.82134 l 0.36225,-27.66666 0.6648,28.46529 c 0.36563,15.6559 0.22398,29.1559 -0.31479,29.99999 -0.73188,1.14664 -0.98475,1.13799 -1,-0.0342 z M 196.99999,117.6697 c 10.45,-0.22528 27.54999,-0.22528 37.99999,0 10.45,0.22528 1.9,0.40959 -18.99999,0.40959 -20.9,0 -29.45,-0.18431 -19,-0.40959 z m 64.08333,0.0861 c 0.9625,-0.38516 2.1125,-0.33779 2.55555,0.10526 0.44306,0.44306 -0.34444,0.75819 -1.75,0.7003 -1.55326,-0.064 -1.8692,-0.37992 -0.80555,-0.80556 z m 6.59887,-0.0322 c 1.65855,-0.31892 4.05855,-0.30681 5.33334,0.0269 1.27478,0.33373 -0.0822,0.59466 -3.01555,0.57986 -2.93333,-0.0148 -3.97634,-0.28784 -2.31779,-0.60677 z m 722.09552,0.0541 c 0.48889,-0.48889 1.28889,-0.48889 1.77778,0 0.48889,0.48889 0.0889,0.88889 -0.88889,0.88889 -0.97778,0 -1.37778,-0.4 -0.88889,-0.88889 z m 14.55559,-0.10219 c 5.6833,-0.24993 14.9833,-0.24993 20.6666,0 5.6834,0.24994 1.0334,0.45443 -10.3333,0.45443 -11.3667,0 -16.01667,-0.20449 -10.3333,-0.45443 z m 52,0.002 c 4.95,-0.25655 13.05,-0.25655 18,0 4.95,0.25654 0.9,0.46643 -9,0.46643 -9.9,0 -13.95,-0.20989 -9,-0.46643 z m 27.6666,0.32206 c 0,-0.36666 0.3,-0.66666 0.6667,-0.66666 0.3667,0 0.6667,0.3 0.6667,0.66666 0,0.36667 -0.3,0.66667 -0.6667,0.66667 -0.3667,0 -0.6667,-0.3 -0.6667,-0.66667 z m -99.99997,-8 c 0,-0.36666 0.3,-0.66666 0.66667,-0.66666 0.36667,0 0.66667,0.3 0.66667,0.66666 0,0.36667 -0.3,0.66667 -0.66667,0.66667 -0.36667,0 -0.66667,-0.3 -0.66667,-0.66667 z"
         id="path2" />
    </g>
  </g>
</svg>
